<svg version="1.1" xmlns="http://www.w3.org/2000/svg" xmlns:xlink="http://www.w3.org/1999/xlink" width="912" height="501"><defs><clipPath id="VoncqhvUQXyt"><path fill="none" stroke="none" d=" M 0 0 L 912 0 L 912 501 L 0 501 L 0 0 Z"/></clipPath></defs><g transform="scale(1,1)" clip-path="url(#VoncqhvUQXyt)"><g><rect fill="rgb(255,255,255)" stroke="none" x="0" y="0" width="912" height="501" fill-opacity="1"/><path fill="none" stroke="rgb(192,192,192)" paint-order="fill stroke markers" d=" M 17.5 0.5 L 17.5 501.5 M 69.5 0.5 L 69.5 501.5 M 121.5 0.5 L 121.5 501.5 M 173.5 0.5 L 173.5 501.5 M 225.5 0.5 L 225.5 501.5 M 278.5 0.5 L 278.5 501.5 M 330.5 0.5 L 330.5 501.5 M 382.5 0.5 L 382.5 501.5 M 434.5 0.5 L 434.5 501.5 M 486.5 0.5 L 486.5 501.5 M 538.5 0.5 L 538.5 501.5 M 591.5 0.5 L 591.5 501.5 M 643.5 0.5 L 643.5 501.5 M 695.5 0.5 L 695.5 501.5 M 747.5 0.5 L 747.5 501.5 M 799.5 0.5 L 799.5 501.5 M 851.5 0.5 L 851.5 501.5 M 904.5 0.5 L 904.5 501.5" stroke-opacity="1" stroke-linecap="round" stroke-linejoin="round" stroke-miterlimit="10"/><path fill="none" stroke="rgb(192,192,192)" paint-order="fill stroke markers" d=" M -3.5 0.5 L -3.5 501.5 M 6.5 0.5 L 6.5 501.5 M 27.5 0.5 L 27.5 501.5 M 38.5 0.5 L 38.5 501.5 M 48.5 0.5 L 48.5 501.5 M 58.5 0.5 L 58.5 501.5 M 79.5 0.5 L 79.5 501.5 M 90.5 0.5 L 90.5 501.5 M 100.5 0.5 L 100.5 501.5 M 111.5 0.5 L 111.5 501.5 M 132.5 0.5 L 132.5 501.5 M 142.5 0.5 L 142.5 501.5 M 152.5 0.5 L 152.5 501.5 M 163.5 0.5 L 163.5 501.5 M 184.5 0.5 L 184.5 501.5 M 194.5 0.5 L 194.5 501.5 M 205.5 0.5 L 205.5 501.5 M 215.5 0.5 L 215.5 501.5 M 236.5 0.5 L 236.5 501.5 M 246.5 0.5 L 246.5 501.5 M 257.5 0.5 L 257.5 501.5 M 267.5 0.5 L 267.5 501.5 M 288.5 0.5 L 288.5 501.5 M 298.5 0.5 L 298.5 501.5 M 309.5 0.5 L 309.5 501.5 M 319.5 0.5 L 319.5 501.5 M 340.5 0.5 L 340.5 501.5 M 351.5 0.5 L 351.5 501.5 M 361.5 0.5 L 361.5 501.5 M 371.5 0.5 L 371.5 501.5 M 392.5 0.5 L 392.5 501.5 M 403.5 0.5 L 403.5 501.5 M 413.5 0.5 L 413.5 501.5 M 424.5 0.5 L 424.5 501.5 M 445.5 0.5 L 445.5 501.5 M 455.5 0.5 L 455.5 501.5 M 465.5 0.5 L 465.5 501.5 M 476.5 0.5 L 476.5 501.5 M 497.5 0.5 L 497.5 501.5 M 507.5 0.5 L 507.5 501.5 M 518.5 0.5 L 518.5 501.5 M 528.5 0.5 L 528.5 501.5 M 549.5 0.5 L 549.5 501.5 M 559.5 0.5 L 559.5 501.5 M 570.5 0.5 L 570.5 501.5 M 580.5 0.5 L 580.5 501.5 M 601.5 0.5 L 601.5 501.5 M 611.5 0.5 L 611.5 501.5 M 622.5 0.5 L 622.5 501.5 M 632.5 0.5 L 632.5 501.5 M 653.5 0.5 L 653.5 501.5 M 664.5 0.5 L 664.5 501.5 M 674.5 0.5 L 674.5 501.5 M 685.5 0.5 L 685.5 501.5 M 705.5 0.5 L 705.5 501.5 M 716.5 0.5 L 716.5 501.5 M 726.5 0.5 L 726.5 501.5 M 737.5 0.5 L 737.5 501.5 M 758.5 0.5 L 758.5 501.5 M 768.5 0.5 L 768.5 501.5 M 778.5 0.5 L 778.5 501.5 M 789.5 0.5 L 789.5 501.5 M 810.5 0.5 L 810.5 501.5 M 820.5 0.5 L 820.5 501.5 M 831.5 0.5 L 831.5 501.5 M 841.5 0.5 L 841.5 501.5 M 862.5 0.5 L 862.5 501.5 M 872.5 0.5 L 872.5 501.5 M 883.5 0.5 L 883.5 501.5 M 893.5 0.5 L 893.5 501.5" stroke-opacity="0.23529411764705882" stroke-linecap="round" stroke-linejoin="round" stroke-miterlimit="10"/><path fill="none" stroke="rgb(192,192,192)" paint-order="fill stroke markers" d=" M 0.5 17.5 L 912.5 17.5 M 0.5 17.5 L 912.5 17.5 M 0.5 70.5 L 912.5 70.5 M 0.5 122.5 L 912.5 122.5 M 0.5 174.5 L 912.5 174.5 M 0.5 226.5 L 912.5 226.5 M 0.5 278.5 L 912.5 278.5 M 0.5 383.5 L 912.5 383.5 M 0.5 435.5 L 912.5 435.5 M 0.5 487.5 L 912.5 487.5" stroke-opacity="1" stroke-linecap="round" stroke-linejoin="round" stroke-miterlimit="10"/><path fill="none" stroke="rgb(192,192,192)" paint-order="fill stroke markers" d=" M 0.5 7.5 L 912.5 7.5 M 0.5 7.5 L 912.5 7.5 M 0.5 28.5 L 912.5 28.5 M 0.5 38.5 L 912.5 38.5 M 0.5 49.5 L 912.5 49.5 M 0.5 59.5 L 912.5 59.5 M 0.5 80.5 L 912.5 80.5 M 0.5 90.5 L 912.5 90.5 M 0.5 101.5 L 912.5 101.5 M 0.5 111.5 L 912.5 111.5 M 0.5 132.5 L 912.5 132.5 M 0.5 143.5 L 912.5 143.5 M 0.5 153.5 L 912.5 153.5 M 0.5 163.5 L 912.5 163.5 M 0.5 184.5 L 912.5 184.5 M 0.5 195.5 L 912.5 195.5 M 0.5 205.5 L 912.5 205.5 M 0.5 216.5 L 912.5 216.5 M 0.5 236.5 L 912.5 236.5 M 0.5 247.5 L 912.5 247.5 M 0.5 257.5 L 912.5 257.5 M 0.5 268.5 L 912.5 268.5 M 0.5 289.5 L 912.5 289.5 M 0.5 299.5 L 912.5 299.5 M 0.5 310.5 L 912.5 310.5 M 0.5 320.5 L 912.5 320.5 M 0.5 341.5 L 912.5 341.5 M 0.5 351.5 L 912.5 351.5 M 0.5 362.5 L 912.5 362.5 M 0.5 372.5 L 912.5 372.5 M 0.5 393.5 L 912.5 393.5 M 0.5 403.5 L 912.5 403.5 M 0.5 414.5 L 912.5 414.5 M 0.5 424.5 L 912.5 424.5 M 0.5 445.5 L 912.5 445.5 M 0.5 456.5 L 912.5 456.5 M 0.5 466.5 L 912.5 466.5 M 0.5 476.5 L 912.5 476.5 M 0.5 497.5 L 912.5 497.5" stroke-opacity="0.23529411764705882" stroke-linecap="round" stroke-linejoin="round" stroke-miterlimit="10"/><path fill="none" stroke="rgb(0,0,0)" paint-order="fill stroke markers" d=" M 0.5 330.5 L 910.5 330.5" stroke-opacity="1" stroke-miterlimit="10"/><path fill="none" stroke="rgb(0,0,0)" paint-order="fill stroke markers" d=" M 911.5 330.5 L 907.5 326.5" stroke-opacity="1" stroke-miterlimit="10"/><path fill="none" stroke="rgb(0,0,0)" paint-order="fill stroke markers" d=" M 911.5 330.5 L 907.5 334.5" stroke-opacity="1" stroke-miterlimit="10"/><text fill="rgb(0,0,0)" stroke="none" font-family="geogebra-sans-serif, sans-serif" font-size="12px" font-style="normal" font-weight="normal" text-decoration="normal" x="15" y="346" text-anchor="start" dominant-baseline="alphabetic" fill-opacity="1">1</text><text fill="none" stroke="rgb(255,255,255)" font-family="geogebra-sans-serif, sans-serif" font-size="12px" font-style="normal" font-weight="normal" text-decoration="normal" x="15" y="346" text-anchor="start" dominant-baseline="alphabetic" stroke-opacity="1" stroke-linejoin="bevel" stroke-miterlimit="10" stroke-width="3">1</text><text fill="rgb(0,0,0)" stroke="none" font-family="geogebra-sans-serif, sans-serif" font-size="12px" font-style="normal" font-weight="normal" text-decoration="normal" x="15" y="346" text-anchor="start" dominant-baseline="alphabetic" fill-opacity="1">1</text><text fill="rgb(0,0,0)" stroke="none" font-family="geogebra-sans-serif, sans-serif" font-size="12px" font-style="normal" font-weight="normal" text-decoration="normal" x="67" y="346" text-anchor="start" dominant-baseline="alphabetic" fill-opacity="1">2</text><text fill="none" stroke="rgb(255,255,255)" font-family="geogebra-sans-serif, sans-serif" font-size="12px" font-style="normal" font-weight="normal" text-decoration="normal" x="67" y="346" text-anchor="start" dominant-baseline="alphabetic" stroke-opacity="1" stroke-linejoin="bevel" stroke-miterlimit="10" stroke-width="3">2</text><text fill="rgb(0,0,0)" stroke="none" font-family="geogebra-sans-serif, sans-serif" font-size="12px" font-style="normal" font-weight="normal" text-decoration="normal" x="67" y="346" text-anchor="start" dominant-baseline="alphabetic" fill-opacity="1">2</text><text fill="rgb(0,0,0)" stroke="none" font-family="geogebra-sans-serif, sans-serif" font-size="12px" font-style="normal" font-weight="normal" text-decoration="normal" x="119" y="346" text-anchor="start" dominant-baseline="alphabetic" fill-opacity="1">3</text><text fill="none" stroke="rgb(255,255,255)" font-family="geogebra-sans-serif, sans-serif" font-size="12px" font-style="normal" font-weight="normal" text-decoration="normal" x="119" y="346" text-anchor="start" dominant-baseline="alphabetic" stroke-opacity="1" stroke-linejoin="bevel" stroke-miterlimit="10" stroke-width="3">3</text><text fill="rgb(0,0,0)" stroke="none" font-family="geogebra-sans-serif, sans-serif" font-size="12px" font-style="normal" font-weight="normal" text-decoration="normal" x="119" y="346" text-anchor="start" dominant-baseline="alphabetic" fill-opacity="1">3</text><text fill="rgb(0,0,0)" stroke="none" font-family="geogebra-sans-serif, sans-serif" font-size="12px" font-style="normal" font-weight="normal" text-decoration="normal" x="171" y="346" text-anchor="start" dominant-baseline="alphabetic" fill-opacity="1">4</text><text fill="none" stroke="rgb(255,255,255)" font-family="geogebra-sans-serif, sans-serif" font-size="12px" font-style="normal" font-weight="normal" text-decoration="normal" x="171" y="346" text-anchor="start" dominant-baseline="alphabetic" stroke-opacity="1" stroke-linejoin="bevel" stroke-miterlimit="10" stroke-width="3">4</text><text fill="rgb(0,0,0)" stroke="none" font-family="geogebra-sans-serif, sans-serif" font-size="12px" font-style="normal" font-weight="normal" text-decoration="normal" x="171" y="346" text-anchor="start" dominant-baseline="alphabetic" fill-opacity="1">4</text><text fill="rgb(0,0,0)" stroke="none" font-family="geogebra-sans-serif, sans-serif" font-size="12px" font-style="normal" font-weight="normal" text-decoration="normal" x="223" y="346" text-anchor="start" dominant-baseline="alphabetic" fill-opacity="1">5</text><text fill="none" stroke="rgb(255,255,255)" font-family="geogebra-sans-serif, sans-serif" font-size="12px" font-style="normal" font-weight="normal" text-decoration="normal" x="223" y="346" text-anchor="start" dominant-baseline="alphabetic" stroke-opacity="1" stroke-linejoin="bevel" stroke-miterlimit="10" stroke-width="3">5</text><text fill="rgb(0,0,0)" stroke="none" font-family="geogebra-sans-serif, sans-serif" font-size="12px" font-style="normal" font-weight="normal" text-decoration="normal" x="223" y="346" text-anchor="start" dominant-baseline="alphabetic" fill-opacity="1">5</text><text fill="rgb(0,0,0)" stroke="none" font-family="geogebra-sans-serif, sans-serif" font-size="12px" font-style="normal" font-weight="normal" text-decoration="normal" x="276" y="346" text-anchor="start" dominant-baseline="alphabetic" fill-opacity="1">6</text><text fill="none" stroke="rgb(255,255,255)" font-family="geogebra-sans-serif, sans-serif" font-size="12px" font-style="normal" font-weight="normal" text-decoration="normal" x="276" y="346" text-anchor="start" dominant-baseline="alphabetic" stroke-opacity="1" stroke-linejoin="bevel" stroke-miterlimit="10" stroke-width="3">6</text><text fill="rgb(0,0,0)" stroke="none" font-family="geogebra-sans-serif, sans-serif" font-size="12px" font-style="normal" font-weight="normal" text-decoration="normal" x="276" y="346" text-anchor="start" dominant-baseline="alphabetic" fill-opacity="1">6</text><text fill="rgb(0,0,0)" stroke="none" font-family="geogebra-sans-serif, sans-serif" font-size="12px" font-style="normal" font-weight="normal" text-decoration="normal" x="328" y="346" text-anchor="start" dominant-baseline="alphabetic" fill-opacity="1">7</text><text fill="none" stroke="rgb(255,255,255)" font-family="geogebra-sans-serif, sans-serif" font-size="12px" font-style="normal" font-weight="normal" text-decoration="normal" x="328" y="346" text-anchor="start" dominant-baseline="alphabetic" stroke-opacity="1" stroke-linejoin="bevel" stroke-miterlimit="10" stroke-width="3">7</text><text fill="rgb(0,0,0)" stroke="none" font-family="geogebra-sans-serif, sans-serif" font-size="12px" font-style="normal" font-weight="normal" text-decoration="normal" x="328" y="346" text-anchor="start" dominant-baseline="alphabetic" fill-opacity="1">7</text><text fill="rgb(0,0,0)" stroke="none" font-family="geogebra-sans-serif, sans-serif" font-size="12px" font-style="normal" font-weight="normal" text-decoration="normal" x="380" y="346" text-anchor="start" dominant-baseline="alphabetic" fill-opacity="1">8</text><text fill="none" stroke="rgb(255,255,255)" font-family="geogebra-sans-serif, sans-serif" font-size="12px" font-style="normal" font-weight="normal" text-decoration="normal" x="380" y="346" text-anchor="start" dominant-baseline="alphabetic" stroke-opacity="1" stroke-linejoin="bevel" stroke-miterlimit="10" stroke-width="3">8</text><text fill="rgb(0,0,0)" stroke="none" font-family="geogebra-sans-serif, sans-serif" font-size="12px" font-style="normal" font-weight="normal" text-decoration="normal" x="380" y="346" text-anchor="start" dominant-baseline="alphabetic" fill-opacity="1">8</text><text fill="rgb(0,0,0)" stroke="none" font-family="geogebra-sans-serif, sans-serif" font-size="12px" font-style="normal" font-weight="normal" text-decoration="normal" x="432" y="346" text-anchor="start" dominant-baseline="alphabetic" fill-opacity="1">9</text><text fill="none" stroke="rgb(255,255,255)" font-family="geogebra-sans-serif, sans-serif" font-size="12px" font-style="normal" font-weight="normal" text-decoration="normal" x="432" y="346" text-anchor="start" dominant-baseline="alphabetic" stroke-opacity="1" stroke-linejoin="bevel" stroke-miterlimit="10" stroke-width="3">9</text><text fill="rgb(0,0,0)" stroke="none" font-family="geogebra-sans-serif, sans-serif" font-size="12px" font-style="normal" font-weight="normal" text-decoration="normal" x="432" y="346" text-anchor="start" dominant-baseline="alphabetic" fill-opacity="1">9</text><text fill="rgb(0,0,0)" stroke="none" font-family="geogebra-sans-serif, sans-serif" font-size="12px" font-style="normal" font-weight="normal" text-decoration="normal" x="481" y="346" text-anchor="start" dominant-baseline="alphabetic" fill-opacity="1">10</text><text fill="none" stroke="rgb(255,255,255)" font-family="geogebra-sans-serif, sans-serif" font-size="12px" font-style="normal" font-weight="normal" text-decoration="normal" x="481" y="346" text-anchor="start" dominant-baseline="alphabetic" stroke-opacity="1" stroke-linejoin="bevel" stroke-miterlimit="10" stroke-width="3">10</text><text fill="rgb(0,0,0)" stroke="none" font-family="geogebra-sans-serif, sans-serif" font-size="12px" font-style="normal" font-weight="normal" text-decoration="normal" x="481" y="346" text-anchor="start" dominant-baseline="alphabetic" fill-opacity="1">10</text><text fill="rgb(0,0,0)" stroke="none" font-family="geogebra-sans-serif, sans-serif" font-size="12px" font-style="normal" font-weight="normal" text-decoration="normal" x="533" y="346" text-anchor="start" dominant-baseline="alphabetic" fill-opacity="1">11</text><text fill="none" stroke="rgb(255,255,255)" font-family="geogebra-sans-serif, sans-serif" font-size="12px" font-style="normal" font-weight="normal" text-decoration="normal" x="533" y="346" text-anchor="start" dominant-baseline="alphabetic" stroke-opacity="1" stroke-linejoin="bevel" stroke-miterlimit="10" stroke-width="3">11</text><text fill="rgb(0,0,0)" stroke="none" font-family="geogebra-sans-serif, sans-serif" font-size="12px" font-style="normal" font-weight="normal" text-decoration="normal" x="533" y="346" text-anchor="start" dominant-baseline="alphabetic" fill-opacity="1">11</text><text fill="rgb(0,0,0)" stroke="none" font-family="geogebra-sans-serif, sans-serif" font-size="12px" font-style="normal" font-weight="normal" text-decoration="normal" x="586" y="346" text-anchor="start" dominant-baseline="alphabetic" fill-opacity="1">12</text><text fill="none" stroke="rgb(255,255,255)" font-family="geogebra-sans-serif, sans-serif" font-size="12px" font-style="normal" font-weight="normal" text-decoration="normal" x="586" y="346" text-anchor="start" dominant-baseline="alphabetic" stroke-opacity="1" stroke-linejoin="bevel" stroke-miterlimit="10" stroke-width="3">12</text><text fill="rgb(0,0,0)" stroke="none" font-family="geogebra-sans-serif, sans-serif" font-size="12px" font-style="normal" font-weight="normal" text-decoration="normal" x="586" y="346" text-anchor="start" dominant-baseline="alphabetic" fill-opacity="1">12</text><text fill="rgb(0,0,0)" stroke="none" font-family="geogebra-sans-serif, sans-serif" font-size="12px" font-style="normal" font-weight="normal" text-decoration="normal" x="638" y="346" text-anchor="start" dominant-baseline="alphabetic" fill-opacity="1">13</text><text fill="none" stroke="rgb(255,255,255)" font-family="geogebra-sans-serif, sans-serif" font-size="12px" font-style="normal" font-weight="normal" text-decoration="normal" x="638" y="346" text-anchor="start" dominant-baseline="alphabetic" stroke-opacity="1" stroke-linejoin="bevel" stroke-miterlimit="10" stroke-width="3">13</text><text fill="rgb(0,0,0)" stroke="none" font-family="geogebra-sans-serif, sans-serif" font-size="12px" font-style="normal" font-weight="normal" text-decoration="normal" x="638" y="346" text-anchor="start" dominant-baseline="alphabetic" fill-opacity="1">13</text><text fill="rgb(0,0,0)" stroke="none" font-family="geogebra-sans-serif, sans-serif" font-size="12px" font-style="normal" font-weight="normal" text-decoration="normal" x="690" y="346" text-anchor="start" dominant-baseline="alphabetic" fill-opacity="1">14</text><text fill="none" stroke="rgb(255,255,255)" font-family="geogebra-sans-serif, sans-serif" font-size="12px" font-style="normal" font-weight="normal" text-decoration="normal" x="690" y="346" text-anchor="start" dominant-baseline="alphabetic" stroke-opacity="1" stroke-linejoin="bevel" stroke-miterlimit="10" stroke-width="3">14</text><text fill="rgb(0,0,0)" stroke="none" font-family="geogebra-sans-serif, sans-serif" font-size="12px" font-style="normal" font-weight="normal" text-decoration="normal" x="690" y="346" text-anchor="start" dominant-baseline="alphabetic" fill-opacity="1">14</text><text fill="rgb(0,0,0)" stroke="none" font-family="geogebra-sans-serif, sans-serif" font-size="12px" font-style="normal" font-weight="normal" text-decoration="normal" x="742" y="346" text-anchor="start" dominant-baseline="alphabetic" fill-opacity="1">15</text><text fill="none" stroke="rgb(255,255,255)" font-family="geogebra-sans-serif, sans-serif" font-size="12px" font-style="normal" font-weight="normal" text-decoration="normal" x="742" y="346" text-anchor="start" dominant-baseline="alphabetic" stroke-opacity="1" stroke-linejoin="bevel" stroke-miterlimit="10" stroke-width="3">15</text><text fill="rgb(0,0,0)" stroke="none" font-family="geogebra-sans-serif, sans-serif" font-size="12px" font-style="normal" font-weight="normal" text-decoration="normal" x="742" y="346" text-anchor="start" dominant-baseline="alphabetic" fill-opacity="1">15</text><text fill="rgb(0,0,0)" stroke="none" font-family="geogebra-sans-serif, sans-serif" font-size="12px" font-style="normal" font-weight="normal" text-decoration="normal" x="794" y="346" text-anchor="start" dominant-baseline="alphabetic" fill-opacity="1">16</text><text fill="none" stroke="rgb(255,255,255)" font-family="geogebra-sans-serif, sans-serif" font-size="12px" font-style="normal" font-weight="normal" text-decoration="normal" x="794" y="346" text-anchor="start" dominant-baseline="alphabetic" stroke-opacity="1" stroke-linejoin="bevel" stroke-miterlimit="10" stroke-width="3">16</text><text fill="rgb(0,0,0)" stroke="none" font-family="geogebra-sans-serif, sans-serif" font-size="12px" font-style="normal" font-weight="normal" text-decoration="normal" x="794" y="346" text-anchor="start" dominant-baseline="alphabetic" fill-opacity="1">16</text><text fill="rgb(0,0,0)" stroke="none" font-family="geogebra-sans-serif, sans-serif" font-size="12px" font-style="normal" font-weight="normal" text-decoration="normal" x="846" y="346" text-anchor="start" dominant-baseline="alphabetic" fill-opacity="1">17</text><text fill="none" stroke="rgb(255,255,255)" font-family="geogebra-sans-serif, sans-serif" font-size="12px" font-style="normal" font-weight="normal" text-decoration="normal" x="846" y="346" text-anchor="start" dominant-baseline="alphabetic" stroke-opacity="1" stroke-linejoin="bevel" stroke-miterlimit="10" stroke-width="3">17</text><text fill="rgb(0,0,0)" stroke="none" font-family="geogebra-sans-serif, sans-serif" font-size="12px" font-style="normal" font-weight="normal" text-decoration="normal" x="846" y="346" text-anchor="start" dominant-baseline="alphabetic" fill-opacity="1">17</text><text fill="rgb(0,0,0)" stroke="none" font-family="geogebra-sans-serif, sans-serif" font-size="12px" font-style="normal" font-weight="normal" text-decoration="normal" x="3" y="492" text-anchor="start" dominant-baseline="alphabetic" fill-opacity="1">–3</text><text fill="none" stroke="rgb(255,255,255)" font-family="geogebra-sans-serif, sans-serif" font-size="12px" font-style="normal" font-weight="normal" text-decoration="normal" x="3" y="492" text-anchor="start" dominant-baseline="alphabetic" stroke-opacity="1" stroke-linejoin="bevel" stroke-miterlimit="10" stroke-width="3">–3</text><text fill="rgb(0,0,0)" stroke="none" font-family="geogebra-sans-serif, sans-serif" font-size="12px" font-style="normal" font-weight="normal" text-decoration="normal" x="3" y="492" text-anchor="start" dominant-baseline="alphabetic" fill-opacity="1">–3</text><text fill="rgb(0,0,0)" stroke="none" font-family="geogebra-sans-serif, sans-serif" font-size="12px" font-style="normal" font-weight="normal" text-decoration="normal" x="4" y="440" text-anchor="start" dominant-baseline="alphabetic" fill-opacity="1">–2</text><text fill="none" stroke="rgb(255,255,255)" font-family="geogebra-sans-serif, sans-serif" font-size="12px" font-style="normal" font-weight="normal" text-decoration="normal" x="4" y="440" text-anchor="start" dominant-baseline="alphabetic" stroke-opacity="1" stroke-linejoin="bevel" stroke-miterlimit="10" stroke-width="3">–2</text><text fill="rgb(0,0,0)" stroke="none" font-family="geogebra-sans-serif, sans-serif" font-size="12px" font-style="normal" font-weight="normal" text-decoration="normal" x="4" y="440" text-anchor="start" dominant-baseline="alphabetic" fill-opacity="1">–2</text><text fill="rgb(0,0,0)" stroke="none" font-family="geogebra-sans-serif, sans-serif" font-size="12px" font-style="normal" font-weight="normal" text-decoration="normal" x="5" y="388" text-anchor="start" dominant-baseline="alphabetic" fill-opacity="1">–1</text><text fill="none" stroke="rgb(255,255,255)" font-family="geogebra-sans-serif, sans-serif" font-size="12px" font-style="normal" font-weight="normal" text-decoration="normal" x="5" y="388" text-anchor="start" dominant-baseline="alphabetic" stroke-opacity="1" stroke-linejoin="bevel" stroke-miterlimit="10" stroke-width="3">–1</text><text fill="rgb(0,0,0)" stroke="none" font-family="geogebra-sans-serif, sans-serif" font-size="12px" font-style="normal" font-weight="normal" text-decoration="normal" x="5" y="388" text-anchor="start" dominant-baseline="alphabetic" fill-opacity="1">–1</text><text fill="rgb(0,0,0)" stroke="none" font-family="geogebra-sans-serif, sans-serif" font-size="12px" font-style="normal" font-weight="normal" text-decoration="normal" x="11" y="283" text-anchor="start" dominant-baseline="alphabetic" fill-opacity="1">1</text><text fill="none" stroke="rgb(255,255,255)" font-family="geogebra-sans-serif, sans-serif" font-size="12px" font-style="normal" font-weight="normal" text-decoration="normal" x="11" y="283" text-anchor="start" dominant-baseline="alphabetic" stroke-opacity="1" stroke-linejoin="bevel" stroke-miterlimit="10" stroke-width="3">1</text><text fill="rgb(0,0,0)" stroke="none" font-family="geogebra-sans-serif, sans-serif" font-size="12px" font-style="normal" font-weight="normal" text-decoration="normal" x="11" y="283" text-anchor="start" dominant-baseline="alphabetic" fill-opacity="1">1</text><text fill="rgb(0,0,0)" stroke="none" font-family="geogebra-sans-serif, sans-serif" font-size="12px" font-style="normal" font-weight="normal" text-decoration="normal" x="10" y="231" text-anchor="start" dominant-baseline="alphabetic" fill-opacity="1">2</text><text fill="none" stroke="rgb(255,255,255)" font-family="geogebra-sans-serif, sans-serif" font-size="12px" font-style="normal" font-weight="normal" text-decoration="normal" x="10" y="231" text-anchor="start" dominant-baseline="alphabetic" stroke-opacity="1" stroke-linejoin="bevel" stroke-miterlimit="10" stroke-width="3">2</text><text fill="rgb(0,0,0)" stroke="none" font-family="geogebra-sans-serif, sans-serif" font-size="12px" font-style="normal" font-weight="normal" text-decoration="normal" x="10" y="231" text-anchor="start" dominant-baseline="alphabetic" fill-opacity="1">2</text><text fill="rgb(0,0,0)" stroke="none" font-family="geogebra-sans-serif, sans-serif" font-size="12px" font-style="normal" font-weight="normal" text-decoration="normal" x="9" y="179" text-anchor="start" dominant-baseline="alphabetic" fill-opacity="1">3</text><text fill="none" stroke="rgb(255,255,255)" font-family="geogebra-sans-serif, sans-serif" font-size="12px" font-style="normal" font-weight="normal" text-decoration="normal" x="9" y="179" text-anchor="start" dominant-baseline="alphabetic" stroke-opacity="1" stroke-linejoin="bevel" stroke-miterlimit="10" stroke-width="3">3</text><text fill="rgb(0,0,0)" stroke="none" font-family="geogebra-sans-serif, sans-serif" font-size="12px" font-style="normal" font-weight="normal" text-decoration="normal" x="9" y="179" text-anchor="start" dominant-baseline="alphabetic" fill-opacity="1">3</text><text fill="rgb(0,0,0)" stroke="none" font-family="geogebra-sans-serif, sans-serif" font-size="12px" font-style="normal" font-weight="normal" text-decoration="normal" x="9" y="127" text-anchor="start" dominant-baseline="alphabetic" fill-opacity="1">4</text><text fill="none" stroke="rgb(255,255,255)" font-family="geogebra-sans-serif, sans-serif" font-size="12px" font-style="normal" font-weight="normal" text-decoration="normal" x="9" y="127" text-anchor="start" dominant-baseline="alphabetic" stroke-opacity="1" stroke-linejoin="bevel" stroke-miterlimit="10" stroke-width="3">4</text><text fill="rgb(0,0,0)" stroke="none" font-family="geogebra-sans-serif, sans-serif" font-size="12px" font-style="normal" font-weight="normal" text-decoration="normal" x="9" y="127" text-anchor="start" dominant-baseline="alphabetic" fill-opacity="1">4</text><text fill="rgb(0,0,0)" stroke="none" font-family="geogebra-sans-serif, sans-serif" font-size="12px" font-style="normal" font-weight="normal" text-decoration="normal" x="10" y="75" text-anchor="start" dominant-baseline="alphabetic" fill-opacity="1">5</text><text fill="none" stroke="rgb(255,255,255)" font-family="geogebra-sans-serif, sans-serif" font-size="12px" font-style="normal" font-weight="normal" text-decoration="normal" x="10" y="75" text-anchor="start" dominant-baseline="alphabetic" stroke-opacity="1" stroke-linejoin="bevel" stroke-miterlimit="10" stroke-width="3">5</text><text fill="rgb(0,0,0)" stroke="none" font-family="geogebra-sans-serif, sans-serif" font-size="12px" font-style="normal" font-weight="normal" text-decoration="normal" x="10" y="75" text-anchor="start" dominant-baseline="alphabetic" fill-opacity="1">5</text><text fill="rgb(0,0,0)" stroke="none" font-family="geogebra-sans-serif, sans-serif" font-size="12px" font-style="normal" font-weight="normal" text-decoration="normal" x="10" y="22" text-anchor="start" dominant-baseline="alphabetic" fill-opacity="1">6</text><text fill="none" stroke="rgb(255,255,255)" font-family="geogebra-sans-serif, sans-serif" font-size="12px" font-style="normal" font-weight="normal" text-decoration="normal" x="10" y="22" text-anchor="start" dominant-baseline="alphabetic" stroke-opacity="1" stroke-linejoin="bevel" stroke-miterlimit="10" stroke-width="3">6</text><text fill="rgb(0,0,0)" stroke="none" font-family="geogebra-sans-serif, sans-serif" font-size="12px" font-style="normal" font-weight="normal" text-decoration="normal" x="10" y="22" text-anchor="start" dominant-baseline="alphabetic" fill-opacity="1">6</text><path fill="none" stroke="rgb(0,0,0)" paint-order="fill stroke markers" d=" M 69.39315123207979 294.743129778488 L 121.56651831310327 273.5607427435921 L 173.73988539412673 258.586986391338 L 225.9132524751502 246.90015216518847 L 278.0866195561737 237.40459935644202 L 382.4333537182206 222.37866963710692 L 434.60672079924404 216.27438568862704 L 486.7800878802675 210.74400877803845 L 591.1268220423145 201.24845596929197 L 799.8202903664084 186.22252624995687" stroke-opacity="0.6980392156862745" stroke-linecap="round" stroke-linejoin="round" stroke-miterlimit="10" stroke-width="2.5"/><text fill="rgb(0,0,0)" stroke="none" font-family="geogebra-sans-serif, sans-serif" font-size="16px" font-style="normal" font-weight="normal" text-decoration="normal" x="320" y="211" text-anchor="start" dominant-baseline="alphabetic" fill-opacity="1">Mystery Function</text><text fill="none" stroke="rgb(255,255,255)" font-family="geogebra-sans-serif, sans-serif" font-size="16px" font-style="normal" font-weight="normal" text-decoration="normal" x="320" y="211" text-anchor="start" dominant-baseline="alphabetic" stroke-opacity="1" stroke-linejoin="bevel" stroke-miterlimit="10" stroke-width="3">Mystery Function</text><text fill="rgb(0,0,0)" stroke="none" font-family="geogebra-sans-serif, sans-serif" font-size="16px" font-style="normal" font-weight="normal" text-decoration="normal" x="320" y="211" text-anchor="start" dominant-baseline="alphabetic" fill-opacity="1">Mystery Function</text><path fill="rgb(21,101,192)" stroke="none" paint-order="stroke fill markers" d=" M 74.39315123207979 294.743129778488 C 74.39315123207979 297.504553527642 72.15457498123375 299.743129778488 69.39315123207979 299.743129778488 C 66.63172748292583 299.743129778488 64.39315123207979 297.504553527642 64.39315123207979 294.743129778488 C 64.39315123207979 291.9817060293341 66.63172748292583 289.743129778488 69.39315123207979 289.743129778488 C 72.15457498123375 289.743129778488 74.39315123207979 291.9817060293341 74.39315123207979 294.743129778488 Z" fill-opacity="1"/><path fill="none" stroke="rgb(0,0,0)" paint-order="fill stroke markers" d=" M 74.39315123207979 294.743129778488 C 74.39315123207979 297.504553527642 72.15457498123375 299.743129778488 69.39315123207979 299.743129778488 C 66.63172748292583 299.743129778488 64.39315123207979 297.504553527642 64.39315123207979 294.743129778488 C 64.39315123207979 291.9817060293341 66.63172748292583 289.743129778488 69.39315123207979 289.743129778488 C 72.15457498123375 289.743129778488 74.39315123207979 291.9817060293341 74.39315123207979 294.743129778488 Z" stroke-opacity="1" stroke-linecap="round" stroke-linejoin="round" stroke-miterlimit="10"/><path fill="rgb(21,101,192)" stroke="none" paint-order="stroke fill markers" d=" M 126.56651831310327 273.5607427435921 C 126.56651831310327 276.322166492746 124.32794206225724 278.5607427435921 121.56651831310327 278.5607427435921 C 118.80509456394931 278.5607427435921 116.56651831310327 276.322166492746 116.56651831310327 273.5607427435921 C 116.56651831310327 270.7993189944381 118.80509456394931 268.5607427435921 121.56651831310327 268.5607427435921 C 124.32794206225724 268.5607427435921 126.56651831310327 270.7993189944381 126.56651831310327 273.5607427435921 Z" fill-opacity="1"/><path fill="none" stroke="rgb(0,0,0)" paint-order="fill stroke markers" d=" M 126.56651831310327 273.5607427435921 C 126.56651831310327 276.322166492746 124.32794206225724 278.5607427435921 121.56651831310327 278.5607427435921 C 118.80509456394931 278.5607427435921 116.56651831310327 276.322166492746 116.56651831310327 273.5607427435921 C 116.56651831310327 270.7993189944381 118.80509456394931 268.5607427435921 121.56651831310327 268.5607427435921 C 124.32794206225724 268.5607427435921 126.56651831310327 270.7993189944381 126.56651831310327 273.5607427435921 Z" stroke-opacity="1" stroke-linecap="round" stroke-linejoin="round" stroke-miterlimit="10"/><path fill="rgb(21,101,192)" stroke="none" paint-order="stroke fill markers" d=" M 178.73988539412673 258.586986391338 C 178.73988539412673 261.3484101404919 176.5013091432807 263.586986391338 173.73988539412673 263.586986391338 C 170.97846164497275 263.586986391338 168.73988539412673 261.3484101404919 168.73988539412673 258.586986391338 C 168.73988539412673 255.825562642184 170.97846164497275 253.58698639133797 173.73988539412673 253.58698639133797 C 176.5013091432807 253.58698639133797 178.73988539412673 255.825562642184 178.73988539412673 258.586986391338 Z" fill-opacity="1"/><path fill="none" stroke="rgb(0,0,0)" paint-order="fill stroke markers" d=" M 178.73988539412673 258.586986391338 C 178.73988539412673 261.3484101404919 176.5013091432807 263.586986391338 173.73988539412673 263.586986391338 C 170.97846164497275 263.586986391338 168.73988539412673 261.3484101404919 168.73988539412673 258.586986391338 C 168.73988539412673 255.825562642184 170.97846164497275 253.58698639133797 173.73988539412673 253.58698639133797 C 176.5013091432807 253.58698639133797 178.73988539412673 255.825562642184 178.73988539412673 258.586986391338 Z" stroke-opacity="1" stroke-linecap="round" stroke-linejoin="round" stroke-miterlimit="10"/><path fill="rgb(21,101,192)" stroke="none" paint-order="stroke fill markers" d=" M 230.9132524751502 246.90015216518847 C 230.9132524751502 249.66157591434245 228.67467622430416 251.90015216518847 225.9132524751502 251.90015216518847 C 223.1518287259962 251.90015216518847 220.9132524751502 249.66157591434245 220.9132524751502 246.90015216518847 C 220.9132524751502 244.1387284160345 223.1518287259962 241.90015216518847 225.9132524751502 241.90015216518847 C 228.67467622430416 241.90015216518847 230.9132524751502 244.1387284160345 230.9132524751502 246.90015216518847 Z" fill-opacity="1"/><path fill="none" stroke="rgb(0,0,0)" paint-order="fill stroke markers" d=" M 230.9132524751502 246.90015216518847 C 230.9132524751502 249.66157591434245 228.67467622430416 251.90015216518847 225.9132524751502 251.90015216518847 C 223.1518287259962 251.90015216518847 220.9132524751502 249.66157591434245 220.9132524751502 246.90015216518847 C 220.9132524751502 244.1387284160345 223.1518287259962 241.90015216518847 225.9132524751502 241.90015216518847 C 228.67467622430416 241.90015216518847 230.9132524751502 244.1387284160345 230.9132524751502 246.90015216518847 Z" stroke-opacity="1" stroke-linecap="round" stroke-linejoin="round" stroke-miterlimit="10"/><path fill="rgb(21,101,192)" stroke="none" paint-order="stroke fill markers" d=" M 283.0866195561737 237.40459935644202 C 283.0866195561737 240.166023105596 280.8480433053276 242.40459935644202 278.0866195561737 242.40459935644202 C 275.3251958070197 242.40459935644202 273.0866195561737 240.166023105596 273.0866195561737 237.40459935644202 C 273.0866195561737 234.64317560728804 275.3251958070197 232.40459935644202 278.0866195561737 232.40459935644202 C 280.8480433053276 232.40459935644202 283.0866195561737 234.64317560728804 283.0866195561737 237.40459935644202 Z" fill-opacity="1"/><path fill="none" stroke="rgb(0,0,0)" paint-order="fill stroke markers" d=" M 283.0866195561737 237.40459935644202 C 283.0866195561737 240.166023105596 280.8480433053276 242.40459935644202 278.0866195561737 242.40459935644202 C 275.3251958070197 242.40459935644202 273.0866195561737 240.166023105596 273.0866195561737 237.40459935644202 C 273.0866195561737 234.64317560728804 275.3251958070197 232.40459935644202 278.0866195561737 232.40459935644202 C 280.8480433053276 232.40459935644202 283.0866195561737 234.64317560728804 283.0866195561737 237.40459935644202 Z" stroke-opacity="1" stroke-linecap="round" stroke-linejoin="round" stroke-miterlimit="10"/><path fill="rgb(21,101,192)" stroke="none" paint-order="stroke fill markers" d=" M 387.4333537182206 222.37866963710692 C 387.4333537182206 225.1400933862609 385.19477746737454 227.37866963710692 382.4333537182206 227.37866963710692 C 379.67192996906664 227.37866963710692 377.4333537182206 225.1400933862609 377.4333537182206 222.37866963710692 C 377.4333537182206 219.61724588795295 379.67192996906664 217.37866963710692 382.4333537182206 217.37866963710692 C 385.19477746737454 217.37866963710692 387.4333537182206 219.61724588795295 387.4333537182206 222.37866963710692 Z" fill-opacity="1"/><path fill="none" stroke="rgb(0,0,0)" paint-order="fill stroke markers" d=" M 387.4333537182206 222.37866963710692 C 387.4333537182206 225.1400933862609 385.19477746737454 227.37866963710692 382.4333537182206 227.37866963710692 C 379.67192996906664 227.37866963710692 377.4333537182206 225.1400933862609 377.4333537182206 222.37866963710692 C 377.4333537182206 219.61724588795295 379.67192996906664 217.37866963710692 382.4333537182206 217.37866963710692 C 385.19477746737454 217.37866963710692 387.4333537182206 219.61724588795295 387.4333537182206 222.37866963710692 Z" stroke-opacity="1" stroke-linecap="round" stroke-linejoin="round" stroke-miterlimit="10"/><path fill="rgb(21,101,192)" stroke="none" paint-order="stroke fill markers" d=" M 439.60672079924404 216.27438568862704 C 439.60672079924404 219.035809437781 437.368144548398 221.27438568862704 434.60672079924404 221.27438568862704 C 431.8452970500901 221.27438568862704 429.60672079924404 219.035809437781 429.60672079924404 216.27438568862704 C 429.60672079924404 213.51296193947306 431.8452970500901 211.27438568862704 434.60672079924404 211.27438568862704 C 437.368144548398 211.27438568862704 439.60672079924404 213.51296193947306 439.60672079924404 216.27438568862704 Z" fill-opacity="1"/><path fill="none" stroke="rgb(0,0,0)" paint-order="fill stroke markers" d=" M 439.60672079924404 216.27438568862704 C 439.60672079924404 219.035809437781 437.368144548398 221.27438568862704 434.60672079924404 221.27438568862704 C 431.8452970500901 221.27438568862704 429.60672079924404 219.035809437781 429.60672079924404 216.27438568862704 C 429.60672079924404 213.51296193947306 431.8452970500901 211.27438568862704 434.60672079924404 211.27438568862704 C 437.368144548398 211.27438568862704 439.60672079924404 213.51296193947306 439.60672079924404 216.27438568862704 Z" stroke-opacity="1" stroke-linecap="round" stroke-linejoin="round" stroke-miterlimit="10"/><path fill="rgb(21,101,192)" stroke="none" paint-order="stroke fill markers" d=" M 491.7800878802675 210.74400877803845 C 491.7800878802675 213.50543252719243 489.54151162942145 215.74400877803845 486.7800878802675 215.74400877803845 C 484.01866413111355 215.74400877803845 481.7800878802675 213.50543252719243 481.7800878802675 210.74400877803845 C 481.7800878802675 207.98258502888447 484.01866413111355 205.74400877803845 486.7800878802675 205.74400877803845 C 489.54151162942145 205.74400877803845 491.7800878802675 207.98258502888447 491.7800878802675 210.74400877803845 Z" fill-opacity="1"/><path fill="none" stroke="rgb(0,0,0)" paint-order="fill stroke markers" d=" M 491.7800878802675 210.74400877803845 C 491.7800878802675 213.50543252719243 489.54151162942145 215.74400877803845 486.7800878802675 215.74400877803845 C 484.01866413111355 215.74400877803845 481.7800878802675 213.50543252719243 481.7800878802675 210.74400877803845 C 481.7800878802675 207.98258502888447 484.01866413111355 205.74400877803845 486.7800878802675 205.74400877803845 C 489.54151162942145 205.74400877803845 491.7800878802675 207.98258502888447 491.7800878802675 210.74400877803845 Z" stroke-opacity="1" stroke-linecap="round" stroke-linejoin="round" stroke-miterlimit="10"/><path fill="rgb(21,101,192)" stroke="none" paint-order="stroke fill markers" d=" M 596.1268220423145 201.24845596929197 C 596.1268220423145 204.00987971844594 593.8882457914685 206.24845596929197 591.1268220423145 206.24845596929197 C 588.3653982931605 206.24845596929197 586.1268220423145 204.00987971844594 586.1268220423145 201.24845596929197 C 586.1268220423145 198.487032220138 588.3653982931605 196.24845596929197 591.1268220423145 196.24845596929197 C 593.8882457914685 196.24845596929197 596.1268220423145 198.487032220138 596.1268220423145 201.24845596929197 Z" fill-opacity="1"/><path fill="none" stroke="rgb(0,0,0)" paint-order="fill stroke markers" d=" M 596.1268220423145 201.24845596929197 C 596.1268220423145 204.00987971844594 593.8882457914685 206.24845596929197 591.1268220423145 206.24845596929197 C 588.3653982931605 206.24845596929197 586.1268220423145 204.00987971844594 586.1268220423145 201.24845596929197 C 586.1268220423145 198.487032220138 588.3653982931605 196.24845596929197 591.1268220423145 196.24845596929197 C 593.8882457914685 196.24845596929197 596.1268220423145 198.487032220138 596.1268220423145 201.24845596929197 Z" stroke-opacity="1" stroke-linecap="round" stroke-linejoin="round" stroke-miterlimit="10"/><path fill="rgb(21,101,192)" stroke="none" paint-order="stroke fill markers" d=" M 804.8202903664084 186.22252624995687 C 804.8202903664084 188.98394999911085 802.5817141155624 191.22252624995687 799.8202903664084 191.22252624995687 C 797.0588666172544 191.22252624995687 794.8202903664084 188.98394999911085 794.8202903664084 186.22252624995687 C 794.8202903664084 183.4611025008029 797.0588666172544 181.22252624995687 799.8202903664084 181.22252624995687 C 802.5817141155624 181.22252624995687 804.8202903664084 183.4611025008029 804.8202903664084 186.22252624995687 Z" fill-opacity="1"/><path fill="none" stroke="rgb(0,0,0)" paint-order="fill stroke markers" d=" M 804.8202903664084 186.22252624995687 C 804.8202903664084 188.98394999911085 802.5817141155624 191.22252624995687 799.8202903664084 191.22252624995687 C 797.0588666172544 191.22252624995687 794.8202903664084 188.98394999911085 794.8202903664084 186.22252624995687 C 794.8202903664084 183.4611025008029 797.0588666172544 181.22252624995687 799.8202903664084 181.22252624995687 C 802.5817141155624 181.22252624995687 804.8202903664084 183.4611025008029 804.8202903664084 186.22252624995687 Z" stroke-opacity="1" stroke-linecap="round" stroke-linejoin="round" stroke-miterlimit="10"/></g></g></svg>