<svg version="1.1" xmlns="http://www.w3.org/2000/svg" xmlns:xlink="http://www.w3.org/1999/xlink" width="768" height="570"><defs><clipPath id="vVorMItqiICM"><path fill="none" stroke="none" d=" M 0 0 L 768 0 L 768 570 L 0 570 L 0 0 Z"/></clipPath></defs><g transform="scale(1,1)" clip-path="url(#vVorMItqiICM)"><g><rect fill="rgb(255,255,255)" stroke="none" x="0" y="0" width="768" height="570" fill-opacity="1"/><path fill="none" stroke="rgb(192,192,192)" paint-order="fill stroke markers" d=" M 18.5 0.5 L 18.5 570.5 M 18.5 0.5 L 18.5 570.5 M 77.5 0.5 L 77.5 570.5 M 135.5 0.5 L 135.5 570.5 M 194.5 0.5 L 194.5 570.5 M 253.5 0.5 L 253.5 570.5 M 312.5 0.5 L 312.5 570.5 M 371.5 0.5 L 371.5 570.5 M 488.5 0.5 L 488.5 570.5 M 547.5 0.5 L 547.5 570.5 M 606.5 0.5 L 606.5 570.5 M 665.5 0.5 L 665.5 570.5 M 724.5 0.5 L 724.5 570.5" stroke-opacity="1" stroke-linecap="round" stroke-linejoin="round" stroke-miterlimit="10"/><path fill="none" stroke="rgb(192,192,192)" paint-order="fill stroke markers" d=" M 6.5 0.5 L 6.5 570.5 M 30.5 0.5 L 30.5 570.5 M 41.5 0.5 L 41.5 570.5 M 53.5 0.5 L 53.5 570.5 M 65.5 0.5 L 65.5 570.5 M 88.5 0.5 L 88.5 570.5 M 100.5 0.5 L 100.5 570.5 M 112.5 0.5 L 112.5 570.5 M 124.5 0.5 L 124.5 570.5 M 147.5 0.5 L 147.5 570.5 M 159.5 0.5 L 159.5 570.5 M 171.5 0.5 L 171.5 570.5 M 182.5 0.5 L 182.5 570.5 M 206.5 0.5 L 206.5 570.5 M 218.5 0.5 L 218.5 570.5 M 230.5 0.5 L 230.5 570.5 M 241.5 0.5 L 241.5 570.5 M 265.5 0.5 L 265.5 570.5 M 277.5 0.5 L 277.5 570.5 M 288.5 0.5 L 288.5 570.5 M 300.5 0.5 L 300.5 570.5 M 324.5 0.5 L 324.5 570.5 M 335.5 0.5 L 335.5 570.5 M 347.5 0.5 L 347.5 570.5 M 359.5 0.5 L 359.5 570.5 M 382.5 0.5 L 382.5 570.5 M 394.5 0.5 L 394.5 570.5 M 406.5 0.5 L 406.5 570.5 M 418.5 0.5 L 418.5 570.5 M 441.5 0.5 L 441.5 570.5 M 453.5 0.5 L 453.5 570.5 M 465.5 0.5 L 465.5 570.5 M 477.5 0.5 L 477.5 570.5 M 500.5 0.5 L 500.5 570.5 M 512.5 0.5 L 512.5 570.5 M 524.5 0.5 L 524.5 570.5 M 535.5 0.5 L 535.5 570.5 M 559.5 0.5 L 559.5 570.5 M 571.5 0.5 L 571.5 570.5 M 582.5 0.5 L 582.5 570.5 M 594.5 0.5 L 594.5 570.5 M 618.5 0.5 L 618.5 570.5 M 630.5 0.5 L 630.5 570.5 M 641.5 0.5 L 641.5 570.5 M 653.5 0.5 L 653.5 570.5 M 677.5 0.5 L 677.5 570.5 M 688.5 0.5 L 688.5 570.5 M 700.5 0.5 L 700.5 570.5 M 712.5 0.5 L 712.5 570.5 M 735.5 0.5 L 735.5 570.5 M 747.5 0.5 L 747.5 570.5 M 759.5 0.5 L 759.5 570.5" stroke-opacity="0.23529411764705882" stroke-linecap="round" stroke-linejoin="round" stroke-miterlimit="10"/><path fill="none" stroke="rgb(192,192,192)" paint-order="fill stroke markers" d=" M 0.5 21.5 L 768.5 21.5 M 0.5 21.5 L 768.5 21.5 M 0.5 80.5 L 768.5 80.5 M 0.5 138.5 L 768.5 138.5 M 0.5 197.5 L 768.5 197.5 M 0.5 256.5 L 768.5 256.5 M 0.5 374.5 L 768.5 374.5 M 0.5 433.5 L 768.5 433.5 M 0.5 491.5 L 768.5 491.5 M 0.5 550.5 L 768.5 550.5" stroke-opacity="1" stroke-linecap="round" stroke-linejoin="round" stroke-miterlimit="10"/><path fill="none" stroke="rgb(192,192,192)" paint-order="fill stroke markers" d=" M 0.5 9.5 L 768.5 9.5 M 0.5 9.5 L 768.5 9.5 M 0.5 33.5 L 768.5 33.5 M 0.5 44.5 L 768.5 44.5 M 0.5 56.5 L 768.5 56.5 M 0.5 68.5 L 768.5 68.5 M 0.5 91.5 L 768.5 91.5 M 0.5 103.5 L 768.5 103.5 M 0.5 115.5 L 768.5 115.5 M 0.5 127.5 L 768.5 127.5 M 0.5 150.5 L 768.5 150.5 M 0.5 162.5 L 768.5 162.5 M 0.5 174.5 L 768.5 174.5 M 0.5 185.5 L 768.5 185.5 M 0.5 209.5 L 768.5 209.5 M 0.5 221.5 L 768.5 221.5 M 0.5 233.5 L 768.5 233.5 M 0.5 244.5 L 768.5 244.5 M 0.5 268.5 L 768.5 268.5 M 0.5 280.5 L 768.5 280.5 M 0.5 291.5 L 768.5 291.5 M 0.5 303.5 L 768.5 303.5 M 0.5 327.5 L 768.5 327.5 M 0.5 338.5 L 768.5 338.5 M 0.5 350.5 L 768.5 350.5 M 0.5 362.5 L 768.5 362.5 M 0.5 385.5 L 768.5 385.5 M 0.5 397.5 L 768.5 397.5 M 0.5 409.5 L 768.5 409.5 M 0.5 421.5 L 768.5 421.5 M 0.5 444.5 L 768.5 444.5 M 0.5 456.5 L 768.5 456.5 M 0.5 468.5 L 768.5 468.5 M 0.5 480.5 L 768.5 480.5 M 0.5 503.5 L 768.5 503.5 M 0.5 515.5 L 768.5 515.5 M 0.5 527.5 L 768.5 527.5 M 0.5 538.5 L 768.5 538.5 M 0.5 562.5 L 768.5 562.5" stroke-opacity="0.23529411764705882" stroke-linecap="round" stroke-linejoin="round" stroke-miterlimit="10"/><path fill="none" stroke="rgb(0,0,0)" paint-order="fill stroke markers" d=" M 430.5 2.5 L 430.5 570.5" stroke-opacity="1" stroke-miterlimit="10"/><path fill="none" stroke="rgb(0,0,0)" paint-order="fill stroke markers" d=" M 430.5 1.5 L 426.5 5.5" stroke-opacity="1" stroke-miterlimit="10"/><path fill="none" stroke="rgb(0,0,0)" paint-order="fill stroke markers" d=" M 430.5 1.5 L 434.5 5.5" stroke-opacity="1" stroke-miterlimit="10"/><path fill="none" stroke="rgb(0,0,0)" paint-order="fill stroke markers" d=" M 0.5 315.5 L 766.5 315.5" stroke-opacity="1" stroke-miterlimit="10"/><path fill="none" stroke="rgb(0,0,0)" paint-order="fill stroke markers" d=" M 767.5 315.5 L 763.5 311.5" stroke-opacity="1" stroke-miterlimit="10"/><path fill="none" stroke="rgb(0,0,0)" paint-order="fill stroke markers" d=" M 767.5 315.5 L 763.5 319.5" stroke-opacity="1" stroke-miterlimit="10"/><text fill="rgb(0,0,0)" stroke="none" font-family="geogebra-sans-serif, sans-serif" font-size="12px" font-style="normal" font-weight="normal" text-decoration="normal" x="7" y="331" text-anchor="start" dominant-baseline="alphabetic" fill-opacity="1">–3.5</text><text fill="none" stroke="rgb(255,255,255)" font-family="geogebra-sans-serif, sans-serif" font-size="12px" font-style="normal" font-weight="normal" text-decoration="normal" x="7" y="331" text-anchor="start" dominant-baseline="alphabetic" stroke-opacity="1" stroke-linejoin="bevel" stroke-miterlimit="10" stroke-width="3">–3.5</text><text fill="rgb(0,0,0)" stroke="none" font-family="geogebra-sans-serif, sans-serif" font-size="12px" font-style="normal" font-weight="normal" text-decoration="normal" x="7" y="331" text-anchor="start" dominant-baseline="alphabetic" fill-opacity="1">–3.5</text><text fill="rgb(0,0,0)" stroke="none" font-family="geogebra-sans-serif, sans-serif" font-size="12px" font-style="normal" font-weight="normal" text-decoration="normal" x="72" y="331" text-anchor="start" dominant-baseline="alphabetic" fill-opacity="1">–3</text><text fill="none" stroke="rgb(255,255,255)" font-family="geogebra-sans-serif, sans-serif" font-size="12px" font-style="normal" font-weight="normal" text-decoration="normal" x="72" y="331" text-anchor="start" dominant-baseline="alphabetic" stroke-opacity="1" stroke-linejoin="bevel" stroke-miterlimit="10" stroke-width="3">–3</text><text fill="rgb(0,0,0)" stroke="none" font-family="geogebra-sans-serif, sans-serif" font-size="12px" font-style="normal" font-weight="normal" text-decoration="normal" x="72" y="331" text-anchor="start" dominant-baseline="alphabetic" fill-opacity="1">–3</text><text fill="rgb(0,0,0)" stroke="none" font-family="geogebra-sans-serif, sans-serif" font-size="12px" font-style="normal" font-weight="normal" text-decoration="normal" x="124" y="331" text-anchor="start" dominant-baseline="alphabetic" fill-opacity="1">–2.5</text><text fill="none" stroke="rgb(255,255,255)" font-family="geogebra-sans-serif, sans-serif" font-size="12px" font-style="normal" font-weight="normal" text-decoration="normal" x="124" y="331" text-anchor="start" dominant-baseline="alphabetic" stroke-opacity="1" stroke-linejoin="bevel" stroke-miterlimit="10" stroke-width="3">–2.5</text><text fill="rgb(0,0,0)" stroke="none" font-family="geogebra-sans-serif, sans-serif" font-size="12px" font-style="normal" font-weight="normal" text-decoration="normal" x="124" y="331" text-anchor="start" dominant-baseline="alphabetic" fill-opacity="1">–2.5</text><text fill="rgb(0,0,0)" stroke="none" font-family="geogebra-sans-serif, sans-serif" font-size="12px" font-style="normal" font-weight="normal" text-decoration="normal" x="189" y="331" text-anchor="start" dominant-baseline="alphabetic" fill-opacity="1">–2</text><text fill="none" stroke="rgb(255,255,255)" font-family="geogebra-sans-serif, sans-serif" font-size="12px" font-style="normal" font-weight="normal" text-decoration="normal" x="189" y="331" text-anchor="start" dominant-baseline="alphabetic" stroke-opacity="1" stroke-linejoin="bevel" stroke-miterlimit="10" stroke-width="3">–2</text><text fill="rgb(0,0,0)" stroke="none" font-family="geogebra-sans-serif, sans-serif" font-size="12px" font-style="normal" font-weight="normal" text-decoration="normal" x="189" y="331" text-anchor="start" dominant-baseline="alphabetic" fill-opacity="1">–2</text><text fill="rgb(0,0,0)" stroke="none" font-family="geogebra-sans-serif, sans-serif" font-size="12px" font-style="normal" font-weight="normal" text-decoration="normal" x="242" y="331" text-anchor="start" dominant-baseline="alphabetic" fill-opacity="1">–1.5</text><text fill="none" stroke="rgb(255,255,255)" font-family="geogebra-sans-serif, sans-serif" font-size="12px" font-style="normal" font-weight="normal" text-decoration="normal" x="242" y="331" text-anchor="start" dominant-baseline="alphabetic" stroke-opacity="1" stroke-linejoin="bevel" stroke-miterlimit="10" stroke-width="3">–1.5</text><text fill="rgb(0,0,0)" stroke="none" font-family="geogebra-sans-serif, sans-serif" font-size="12px" font-style="normal" font-weight="normal" text-decoration="normal" x="242" y="331" text-anchor="start" dominant-baseline="alphabetic" fill-opacity="1">–1.5</text><text fill="rgb(0,0,0)" stroke="none" font-family="geogebra-sans-serif, sans-serif" font-size="12px" font-style="normal" font-weight="normal" text-decoration="normal" x="307" y="331" text-anchor="start" dominant-baseline="alphabetic" fill-opacity="1">–1</text><text fill="none" stroke="rgb(255,255,255)" font-family="geogebra-sans-serif, sans-serif" font-size="12px" font-style="normal" font-weight="normal" text-decoration="normal" x="307" y="331" text-anchor="start" dominant-baseline="alphabetic" stroke-opacity="1" stroke-linejoin="bevel" stroke-miterlimit="10" stroke-width="3">–1</text><text fill="rgb(0,0,0)" stroke="none" font-family="geogebra-sans-serif, sans-serif" font-size="12px" font-style="normal" font-weight="normal" text-decoration="normal" x="307" y="331" text-anchor="start" dominant-baseline="alphabetic" fill-opacity="1">–1</text><text fill="rgb(0,0,0)" stroke="none" font-family="geogebra-sans-serif, sans-serif" font-size="12px" font-style="normal" font-weight="normal" text-decoration="normal" x="360" y="331" text-anchor="start" dominant-baseline="alphabetic" fill-opacity="1">–0.5</text><text fill="none" stroke="rgb(255,255,255)" font-family="geogebra-sans-serif, sans-serif" font-size="12px" font-style="normal" font-weight="normal" text-decoration="normal" x="360" y="331" text-anchor="start" dominant-baseline="alphabetic" stroke-opacity="1" stroke-linejoin="bevel" stroke-miterlimit="10" stroke-width="3">–0.5</text><text fill="rgb(0,0,0)" stroke="none" font-family="geogebra-sans-serif, sans-serif" font-size="12px" font-style="normal" font-weight="normal" text-decoration="normal" x="360" y="331" text-anchor="start" dominant-baseline="alphabetic" fill-opacity="1">–0.5</text><text fill="rgb(0,0,0)" stroke="none" font-family="geogebra-sans-serif, sans-serif" font-size="12px" font-style="normal" font-weight="normal" text-decoration="normal" x="480" y="331" text-anchor="start" dominant-baseline="alphabetic" fill-opacity="1">0.5</text><text fill="none" stroke="rgb(255,255,255)" font-family="geogebra-sans-serif, sans-serif" font-size="12px" font-style="normal" font-weight="normal" text-decoration="normal" x="480" y="331" text-anchor="start" dominant-baseline="alphabetic" stroke-opacity="1" stroke-linejoin="bevel" stroke-miterlimit="10" stroke-width="3">0.5</text><text fill="rgb(0,0,0)" stroke="none" font-family="geogebra-sans-serif, sans-serif" font-size="12px" font-style="normal" font-weight="normal" text-decoration="normal" x="480" y="331" text-anchor="start" dominant-baseline="alphabetic" fill-opacity="1">0.5</text><text fill="rgb(0,0,0)" stroke="none" font-family="geogebra-sans-serif, sans-serif" font-size="12px" font-style="normal" font-weight="normal" text-decoration="normal" x="545" y="331" text-anchor="start" dominant-baseline="alphabetic" fill-opacity="1">1</text><text fill="none" stroke="rgb(255,255,255)" font-family="geogebra-sans-serif, sans-serif" font-size="12px" font-style="normal" font-weight="normal" text-decoration="normal" x="545" y="331" text-anchor="start" dominant-baseline="alphabetic" stroke-opacity="1" stroke-linejoin="bevel" stroke-miterlimit="10" stroke-width="3">1</text><text fill="rgb(0,0,0)" stroke="none" font-family="geogebra-sans-serif, sans-serif" font-size="12px" font-style="normal" font-weight="normal" text-decoration="normal" x="545" y="331" text-anchor="start" dominant-baseline="alphabetic" fill-opacity="1">1</text><text fill="rgb(0,0,0)" stroke="none" font-family="geogebra-sans-serif, sans-serif" font-size="12px" font-style="normal" font-weight="normal" text-decoration="normal" x="598" y="331" text-anchor="start" dominant-baseline="alphabetic" fill-opacity="1">1.5</text><text fill="none" stroke="rgb(255,255,255)" font-family="geogebra-sans-serif, sans-serif" font-size="12px" font-style="normal" font-weight="normal" text-decoration="normal" x="598" y="331" text-anchor="start" dominant-baseline="alphabetic" stroke-opacity="1" stroke-linejoin="bevel" stroke-miterlimit="10" stroke-width="3">1.5</text><text fill="rgb(0,0,0)" stroke="none" font-family="geogebra-sans-serif, sans-serif" font-size="12px" font-style="normal" font-weight="normal" text-decoration="normal" x="598" y="331" text-anchor="start" dominant-baseline="alphabetic" fill-opacity="1">1.5</text><text fill="rgb(0,0,0)" stroke="none" font-family="geogebra-sans-serif, sans-serif" font-size="12px" font-style="normal" font-weight="normal" text-decoration="normal" x="663" y="331" text-anchor="start" dominant-baseline="alphabetic" fill-opacity="1">2</text><text fill="none" stroke="rgb(255,255,255)" font-family="geogebra-sans-serif, sans-serif" font-size="12px" font-style="normal" font-weight="normal" text-decoration="normal" x="663" y="331" text-anchor="start" dominant-baseline="alphabetic" stroke-opacity="1" stroke-linejoin="bevel" stroke-miterlimit="10" stroke-width="3">2</text><text fill="rgb(0,0,0)" stroke="none" font-family="geogebra-sans-serif, sans-serif" font-size="12px" font-style="normal" font-weight="normal" text-decoration="normal" x="663" y="331" text-anchor="start" dominant-baseline="alphabetic" fill-opacity="1">2</text><text fill="rgb(0,0,0)" stroke="none" font-family="geogebra-sans-serif, sans-serif" font-size="12px" font-style="normal" font-weight="normal" text-decoration="normal" x="716" y="331" text-anchor="start" dominant-baseline="alphabetic" fill-opacity="1">2.5</text><text fill="none" stroke="rgb(255,255,255)" font-family="geogebra-sans-serif, sans-serif" font-size="12px" font-style="normal" font-weight="normal" text-decoration="normal" x="716" y="331" text-anchor="start" dominant-baseline="alphabetic" stroke-opacity="1" stroke-linejoin="bevel" stroke-miterlimit="10" stroke-width="3">2.5</text><text fill="rgb(0,0,0)" stroke="none" font-family="geogebra-sans-serif, sans-serif" font-size="12px" font-style="normal" font-weight="normal" text-decoration="normal" x="716" y="331" text-anchor="start" dominant-baseline="alphabetic" fill-opacity="1">2.5</text><text fill="rgb(0,0,0)" stroke="none" font-family="geogebra-sans-serif, sans-serif" font-size="12px" font-style="normal" font-weight="normal" text-decoration="normal" x="410" y="555" text-anchor="start" dominant-baseline="alphabetic" fill-opacity="1">–2</text><text fill="none" stroke="rgb(255,255,255)" font-family="geogebra-sans-serif, sans-serif" font-size="12px" font-style="normal" font-weight="normal" text-decoration="normal" x="410" y="555" text-anchor="start" dominant-baseline="alphabetic" stroke-opacity="1" stroke-linejoin="bevel" stroke-miterlimit="10" stroke-width="3">–2</text><text fill="rgb(0,0,0)" stroke="none" font-family="geogebra-sans-serif, sans-serif" font-size="12px" font-style="normal" font-weight="normal" text-decoration="normal" x="410" y="555" text-anchor="start" dominant-baseline="alphabetic" fill-opacity="1">–2</text><text fill="rgb(0,0,0)" stroke="none" font-family="geogebra-sans-serif, sans-serif" font-size="12px" font-style="normal" font-weight="normal" text-decoration="normal" x="402" y="496" text-anchor="start" dominant-baseline="alphabetic" fill-opacity="1">–1.5</text><text fill="none" stroke="rgb(255,255,255)" font-family="geogebra-sans-serif, sans-serif" font-size="12px" font-style="normal" font-weight="normal" text-decoration="normal" x="402" y="496" text-anchor="start" dominant-baseline="alphabetic" stroke-opacity="1" stroke-linejoin="bevel" stroke-miterlimit="10" stroke-width="3">–1.5</text><text fill="rgb(0,0,0)" stroke="none" font-family="geogebra-sans-serif, sans-serif" font-size="12px" font-style="normal" font-weight="normal" text-decoration="normal" x="402" y="496" text-anchor="start" dominant-baseline="alphabetic" fill-opacity="1">–1.5</text><text fill="rgb(0,0,0)" stroke="none" font-family="geogebra-sans-serif, sans-serif" font-size="12px" font-style="normal" font-weight="normal" text-decoration="normal" x="411" y="438" text-anchor="start" dominant-baseline="alphabetic" fill-opacity="1">–1</text><text fill="none" stroke="rgb(255,255,255)" font-family="geogebra-sans-serif, sans-serif" font-size="12px" font-style="normal" font-weight="normal" text-decoration="normal" x="411" y="438" text-anchor="start" dominant-baseline="alphabetic" stroke-opacity="1" stroke-linejoin="bevel" stroke-miterlimit="10" stroke-width="3">–1</text><text fill="rgb(0,0,0)" stroke="none" font-family="geogebra-sans-serif, sans-serif" font-size="12px" font-style="normal" font-weight="normal" text-decoration="normal" x="411" y="438" text-anchor="start" dominant-baseline="alphabetic" fill-opacity="1">–1</text><text fill="rgb(0,0,0)" stroke="none" font-family="geogebra-sans-serif, sans-serif" font-size="12px" font-style="normal" font-weight="normal" text-decoration="normal" x="399" y="379" text-anchor="start" dominant-baseline="alphabetic" fill-opacity="1">–0.5</text><text fill="none" stroke="rgb(255,255,255)" font-family="geogebra-sans-serif, sans-serif" font-size="12px" font-style="normal" font-weight="normal" text-decoration="normal" x="399" y="379" text-anchor="start" dominant-baseline="alphabetic" stroke-opacity="1" stroke-linejoin="bevel" stroke-miterlimit="10" stroke-width="3">–0.5</text><text fill="rgb(0,0,0)" stroke="none" font-family="geogebra-sans-serif, sans-serif" font-size="12px" font-style="normal" font-weight="normal" text-decoration="normal" x="399" y="379" text-anchor="start" dominant-baseline="alphabetic" fill-opacity="1">–0.5</text><text fill="rgb(0,0,0)" stroke="none" font-family="geogebra-sans-serif, sans-serif" font-size="12px" font-style="normal" font-weight="normal" text-decoration="normal" x="405" y="261" text-anchor="start" dominant-baseline="alphabetic" fill-opacity="1">0.5</text><text fill="none" stroke="rgb(255,255,255)" font-family="geogebra-sans-serif, sans-serif" font-size="12px" font-style="normal" font-weight="normal" text-decoration="normal" x="405" y="261" text-anchor="start" dominant-baseline="alphabetic" stroke-opacity="1" stroke-linejoin="bevel" stroke-miterlimit="10" stroke-width="3">0.5</text><text fill="rgb(0,0,0)" stroke="none" font-family="geogebra-sans-serif, sans-serif" font-size="12px" font-style="normal" font-weight="normal" text-decoration="normal" x="405" y="261" text-anchor="start" dominant-baseline="alphabetic" fill-opacity="1">0.5</text><text fill="rgb(0,0,0)" stroke="none" font-family="geogebra-sans-serif, sans-serif" font-size="12px" font-style="normal" font-weight="normal" text-decoration="normal" x="417" y="202" text-anchor="start" dominant-baseline="alphabetic" fill-opacity="1">1</text><text fill="none" stroke="rgb(255,255,255)" font-family="geogebra-sans-serif, sans-serif" font-size="12px" font-style="normal" font-weight="normal" text-decoration="normal" x="417" y="202" text-anchor="start" dominant-baseline="alphabetic" stroke-opacity="1" stroke-linejoin="bevel" stroke-miterlimit="10" stroke-width="3">1</text><text fill="rgb(0,0,0)" stroke="none" font-family="geogebra-sans-serif, sans-serif" font-size="12px" font-style="normal" font-weight="normal" text-decoration="normal" x="417" y="202" text-anchor="start" dominant-baseline="alphabetic" fill-opacity="1">1</text><text fill="rgb(0,0,0)" stroke="none" font-family="geogebra-sans-serif, sans-serif" font-size="12px" font-style="normal" font-weight="normal" text-decoration="normal" x="408" y="143" text-anchor="start" dominant-baseline="alphabetic" fill-opacity="1">1.5</text><text fill="none" stroke="rgb(255,255,255)" font-family="geogebra-sans-serif, sans-serif" font-size="12px" font-style="normal" font-weight="normal" text-decoration="normal" x="408" y="143" text-anchor="start" dominant-baseline="alphabetic" stroke-opacity="1" stroke-linejoin="bevel" stroke-miterlimit="10" stroke-width="3">1.5</text><text fill="rgb(0,0,0)" stroke="none" font-family="geogebra-sans-serif, sans-serif" font-size="12px" font-style="normal" font-weight="normal" text-decoration="normal" x="408" y="143" text-anchor="start" dominant-baseline="alphabetic" fill-opacity="1">1.5</text><text fill="rgb(0,0,0)" stroke="none" font-family="geogebra-sans-serif, sans-serif" font-size="12px" font-style="normal" font-weight="normal" text-decoration="normal" x="416" y="85" text-anchor="start" dominant-baseline="alphabetic" fill-opacity="1">2</text><text fill="none" stroke="rgb(255,255,255)" font-family="geogebra-sans-serif, sans-serif" font-size="12px" font-style="normal" font-weight="normal" text-decoration="normal" x="416" y="85" text-anchor="start" dominant-baseline="alphabetic" stroke-opacity="1" stroke-linejoin="bevel" stroke-miterlimit="10" stroke-width="3">2</text><text fill="rgb(0,0,0)" stroke="none" font-family="geogebra-sans-serif, sans-serif" font-size="12px" font-style="normal" font-weight="normal" text-decoration="normal" x="416" y="85" text-anchor="start" dominant-baseline="alphabetic" fill-opacity="1">2</text><text fill="rgb(0,0,0)" stroke="none" font-family="geogebra-sans-serif, sans-serif" font-size="12px" font-style="normal" font-weight="normal" text-decoration="normal" x="405" y="26" text-anchor="start" dominant-baseline="alphabetic" fill-opacity="1">2.5</text><text fill="none" stroke="rgb(255,255,255)" font-family="geogebra-sans-serif, sans-serif" font-size="12px" font-style="normal" font-weight="normal" text-decoration="normal" x="405" y="26" text-anchor="start" dominant-baseline="alphabetic" stroke-opacity="1" stroke-linejoin="bevel" stroke-miterlimit="10" stroke-width="3">2.5</text><text fill="rgb(0,0,0)" stroke="none" font-family="geogebra-sans-serif, sans-serif" font-size="12px" font-style="normal" font-weight="normal" text-decoration="normal" x="405" y="26" text-anchor="start" dominant-baseline="alphabetic" fill-opacity="1">2.5</text><text fill="rgb(0,0,0)" stroke="none" font-family="geogebra-sans-serif, sans-serif" font-size="12px" font-style="normal" font-weight="normal" text-decoration="normal" x="415" y="331" text-anchor="start" dominant-baseline="alphabetic" fill-opacity="1">0</text><text fill="none" stroke="rgb(255,255,255)" font-family="geogebra-sans-serif, sans-serif" font-size="12px" font-style="normal" font-weight="normal" text-decoration="normal" x="415" y="331" text-anchor="start" dominant-baseline="alphabetic" stroke-opacity="1" stroke-linejoin="bevel" stroke-miterlimit="10" stroke-width="3">0</text><text fill="rgb(0,0,0)" stroke="none" font-family="geogebra-sans-serif, sans-serif" font-size="12px" font-style="normal" font-weight="normal" text-decoration="normal" x="415" y="331" text-anchor="start" dominant-baseline="alphabetic" fill-opacity="1">0</text><path fill="none" stroke="rgb(219,97,20)" paint-order="fill stroke markers" d=" M 172.62359792696776 306.375 L 172.62395609026817 304.59375 L 172.65129293573403 302.8125 L 172.70590044413478 301.03125 L 172.78807482483393 299.25 L 172.89930214569426 297.46874999999994 L 173.03918415676424 295.68749999999994 L 173.20788897832347 293.90624999999994 L 173.4057335073109 292.12499999999994 L 173.63303930331801 290.34374999999994 L 173.89013267466032 288.56249999999994 L 174.1773447663623 286.78124999999994 L 174.49501165010585 284.99999999999994 L 174.84347441619394 283.21875 L 175.2 281.5454168717733 L 175.6394193356783 279.65625 L 176.08770106532188 277.875 L 176.5685682119099 276.09375 L 177.0823910495603 274.3125 L 177.6 272.6270899949061 L 178.21776017631774 270.75 L 178.84010049987745 268.96874999999994 L 179.49731811140987 267.18749999999994 L 179.99999999999997 265.89313778759856 L 180.92897164392934 263.62499999999994 L 181.70233606768196 261.84374999999994 L 182.4 260.3092256872571 L 183.37158280185704 258.28124999999994 L 184.26736340466655 256.49999999999994 L 184.8 255.48291443708982 L 185.20644458950366 254.71874999999994 L 186.19120061705354 252.93749999999994 L 187.2 251.1836166357814 L 188.29318636402888 249.37499999999994 L 189.4114994747691 247.59374999999994 L 190.58243630514184 245.81249999999994 L 191.79790202660666 244.03124999999994 L 193.06799791651002 242.24999999999994 L 194.38398310645294 240.46874999999997 L 195.7587231478317 238.68749999999997 L 196.80000000000004 237.37982902108928 L 198.6631281061666 235.125 L 199.20000000000002 234.49712946220774 L 200.2000344960988 233.34374999999997 L 201.60000000000002 231.7739614193075 L 203.44394232051653 229.78125 L 204.00000000000003 229.19746222953 L 205.15565539787 227.99999999999997 L 206.4 226.7433235816764 L 206.92609067387386 226.21874999999994 L 208.757235369592 224.43749999999994 L 210.65424975577756 222.65624999999994 L 211.20000000000002 222.15585130994174 L 212.6134873098221 220.87499999999994 L 213.60000000000002 220.0011684596815 L 214.63610170360744 219.09374999999994 L 216.00000000000003 217.92527069876985 L 216.7230624813817 217.31249999999994 L 218.40000000000003 215.92134684611784 L 220.80000000000007 213.98323543768194 L 223.20000000000005 212.10535311067798 L 225.60000000000002 210.28263249834026 L 228.00000000000006 208.5104682043565 L 230.40000000000003 206.784669666791 L 232.80000000000004 205.10141991729796 L 235.20000000000002 203.45723940175225 L 235.7816737998518 203.06249999999994 L 237.60000000000002 201.8489541601444 L 238.45597360191758 201.28124999999997 L 240.00000000000006 200.27366777225888 L 241.19242741469074 199.49999999999997 L 242.40000000000003 198.72873656566836 L 243.98969833992987 197.71874999999994 L 244.80000000000004 197.21174765741398 L 246.84630654540965 195.93749999999994 L 249.60000000000002 194.25441704891082 L 252.00000000000003 192.81368639850723 L 252.7341960822702 192.37499999999994 L 254.4 191.39335289635437 L 255.76138519143248 190.59374999999994 L 256.80000000000007 189.99187950393335 L 258.8411819301931 188.81249999999994 L 261.6 187.24301002243268 L 264.00000000000006 185.89619583663324 L 265.1563693826159 185.24999999999994 L 266.40000000000003 184.56349154259695 L 268.3871179250108 183.46874999999997 L 271.20000000000005 181.9402240796273 L 273.6 180.65122190652227 L 274.9925260432817 179.90624999999994 L 276.00000000000006 179.3732577293739 L 278.363229832515 178.12499999999994 L 280.80000000000007 176.8549855192719 L 281.78266057277256 176.34374999999997 L 283.20000000000005 175.61407042142244 L 285.2461103743646 174.56249999999997 L 288.00000000000006 173.16485641579413 L 288.7580005825449 172.78124999999997 L 290.4 171.95846259787388 L 292.3170046800138 170.99999999999994 L 295.20000000000005 169.57642329783948 L 295.9272630792551 169.21874999999997 L 297.6 168.40377157114423 L 299.58938357822524 167.43749999999997 L 302.40000000000003 166.0902341427586 L 303.31008752892967 165.65624999999997 L 304.8 164.95209486584068 L 307.08891682535074 163.87499999999997 L 309.6 162.71128284201436 L 310.9404476495824 162.09375 L 312 161.60978751447527 L 314.40000000000003 160.5209200741159 L 316.80000000000007 159.44850288408014 L 318.8714349220496 158.53124999999997 L 321.6 157.34382895622673 L 322.97946232797113 156.74999999999997 L 324.00000000000006 156.3142391572071 L 326.40000000000003 155.30087951060034 L 327.1966214719001 154.96874999999994 L 328.80000000000007 154.30561228911537 L 331.20000000000005 153.32531233683687 L 333.6000000000001 152.36694543320283 L 336.00000000000006 151.42324932573175 L 338.4000000000001 150.50452735770514 L 340.7369808523032 149.62499999999994 L 343.20000000000005 148.72497216077707 L 345.6000000000001 147.86590022881325 L 348.00000000000006 147.0351174598172 L 350.40000000000003 146.22433132145323 L 352.80000000000007 145.44191427252133 L 355.20000000000005 144.6834790690155 L 356.5155378042815 144.28124999999994 L 357.6 143.95230967595495 L 360.00000000000006 143.25027536486056 L 362.40000000000003 142.57398498090052 L 364.80000000000007 141.93145942594333 L 367.20000000000005 141.31786473600874 L 369.6000000000001 140.73362201407244 L 372.00000000000006 140.18629095759798 L 374.4000000000001 139.67069310279928 L 376.80000000000007 139.1878834095781 L 378.14071585277634 138.93749999999997 L 379.20000000000005 138.74137745163304 L 381.6000000000001 138.33257080173786 L 384.00000000000006 137.95968728224298 L 386.40000000000003 137.62381900006224 L 388.8 137.32601601221853 L 390.37608501457635 137.15624999999997 L 391.20000000000005 137.06831857223096 L 393.6 136.8521612438901 L 396 136.67644828033747 L 398.40000000000003 136.5419974735544 L 400.8 136.44956106642792 L 403.20000000000005 136.3998214614701 L 405.6 136.39338718605782 L 408.00000000000006 136.43078915017458 L 410.40000000000003 136.51247723107824 L 412.80000000000007 136.63881721727438 L 415.20000000000005 136.81008814166518 L 417.6 137.02648003078903 L 418.79095033909056 137.15624999999997 L 420.00000000000006 137.28967768627797 L 422.40000000000003 137.60021034449355 L 424.80000000000007 137.95643066958127 L 427.20000000000005 138.35815568563444 L 429.6000000000001 138.8051074105671 L 430.2460467474436 138.93749999999997 L 432.00000000000006 139.30129467969888 L 434.4000000000001 139.84402316731237 L 436.80000000000007 140.43111122882553 L 437.8940661610679 140.71874999999997 L 439.20000000000005 141.06612960870677 L 441.6000000000001 141.74816706471503 L 444.00000000000006 142.47282801106533 L 446.40000000000003 143.24838062119971 L 448.8 144.06543526024464 L 449.40367262900963 144.28124999999994 L 451.20000000000005 144.930608263867 L 453.6 145.83783318598614 L 456.00000000000006 146.79227002101877 L 458.40000000000003 147.78672433053845 L 460.8 148.82938723680317 L 463.20000000000005 149.91110891407652 L 465.6000000000001 151.03665035843295 L 466.3650496784218 151.40624999999994 L 468.00000000000006 152.2043718730631 L 469.9601465608872 153.18749999999994 L 472.80000000000007 154.65863933186742 L 473.38209854413435 154.96874999999994 L 475.20000000000005 155.94713941954356 L 477.6000000000001 157.27262875508046 L 479.81946794813916 158.53124999999997 L 482.40000000000003 160.03654684309797 L 484.8 161.47495511428275 L 487.20000000000005 162.9479301893961 L 489.6 164.45485275176392 L 492 165.99506959363268 L 494.40000000000003 167.56789792443018 L 496.8 169.17328130547355 L 499.20000000000005 170.81126834639727 L 501.6 172.47929040152297 L 504.00000000000006 174.1765928040181 L 504.5407961903258 174.56249999999997 L 506.40000000000003 175.9024164261725 L 507.0085274599218 176.34374999999997 L 508.80000000000007 177.65600311409688 L 509.43681100865655 178.12499999999994 L 511.20000000000005 179.43660126492634 L 511.8284743523199 179.90624999999994 L 513.6 181.24347153499164 L 514.1860400628265 181.68749999999994 L 516 183.0758926696475 L 516.5117571766137 183.46874999999997 L 518.4000000000001 184.93316744807737 L 520.8000000000001 186.81462873943602 L 523.2 188.71964567015343 L 525.5326293396031 190.59374999999994 L 528.0000000000001 192.60169437007414 L 530.4000000000001 194.57725460435216 L 532.8000000000001 196.57476911237782 L 535.2 198.59389437455513 L 537.6000000000001 200.63436498501068 L 540.0000000000001 202.69600126854374 L 542.4000000000001 204.77871721904947 L 544.5049279593128 206.62499999999997 L 546.5166635570063 208.40624999999997 L 547.2 209.01856323997777 L 549.6000000000001 211.1719762568551 L 550.4861563111216 211.96874999999997 L 552.0000000000001 213.34782870245618 L 554.3831300510662 215.53124999999994 L 556.304581636822 217.31249999999994 L 559.2 220.0347742986101 L 561.6000000000001 222.3177970756161 L 563.8011299122511 224.43749999999994 L 565.6266996253773 226.21874999999994 L 566.4000000000001 226.98479307116534 L 568.8000000000001 229.36921467827594 L 570.9759647619087 231.56249999999997 L 572.7156511965927 233.34374999999997 L 573.6000000000001 234.26461026656378 L 574.4316545590244 235.125 L 576.0000000000001 236.77740619950913 L 577.790943242043 238.68749999999997 L 578.4 239.3508010014138 L 579.4330061176511 240.46874999999997 L 580.8 241.9779657435085 L 582.6365254179733 244.03124999999994 L 583.2 244.6768923927073 L 585.6 247.44607675754185 L 587.22960711532 249.37499999999994 L 588 250.31044863700433 L 588.7003412532849 251.15624999999994 L 590.1391709497616 252.93749999999994 L 592.8000000000001 256.345799652566 L 594.2593658126871 258.28124999999994 L 595.2 259.567386098854 L 596.8327789721787 261.84374999999994 L 597.6 262.95419377337157 L 599.260730329413 265.40624999999994 L 600 266.5451067321276 L 600.4182880061901 267.18749999999994 L 601.5377227501461 268.96874999999994 L 602.4000000000001 270.39146270417325 L 603.6588369659073 272.53125 L 604.6594298957857 274.3125 L 605.619838589399 276.09375 L 606.5391890713164 277.875 L 607.2 279.21579303665106 L 608.2537241138773 281.4375 L 609.0482977836832 283.21875 L 609.6 284.5247193090643 L 610.5106173021811 286.78124999999994 L 611.1780408469895 288.56249999999994 L 611.8029886789367 290.34374999999994 L 612 290.94644628186177 L 612.9234713427078 293.90624999999994 L 613.4193721919119 295.68749999999994 L 613.8724447109257 297.46874999999994 L 614.2826675884401 299.25 L 614.4000000000001 299.81899650780025 L 614.9726771783959 302.8125 L 615.2531300944644 304.59375 L 615.4906656666153 306.375 L 615.6852942055762 308.15625 L 615.837026018772 309.9375 L 615.9458714103266 311.71875 L 616.0118406810639 313.49999999999994 L 616.034944128509 315.28124999999994 M 172.62359792696776 306.375 L 172.64993061846945 308.15625 L 172.70267041722428 309.9375 L 172.7815375834669 311.71875 L 173.01918980910284 315.28124999999994 L 173.17669625141974 317.06249999999994 L 173.35955750940263 318.84374999999994 L 173.56751025651658 320.62499999999994 L 173.8002948000737 322.40624999999994 L 174.05765501876576 324.18749999999994 L 174.33933830148115 325.96874999999994 L 174.64509548737533 327.74999999999994 L 174.97468080716442 329.53124999999994 L 175.2 330.66626949391116 L 175.71068167456338 333.09374999999994 L 176.11532321689066 334.87499999999994 L 176.5431399687393 336.65624999999994 L 176.99390018611626 338.43749999999994 L 177.46737520457577 340.21874999999994 L 178.49294191562254 343.78124999999994 L 179.040214537999 345.5625 L 179.60961887632422 347.34374999999994 L 179.99999999999997 348.5184040159021 L 180.82479332211193 350.90625 L 181.4677859113452 352.6875 L 182.13237691644116 354.46875 L 182.39999999999995 355.1623185242782 L 183.54102149660596 358.03125 L 184.27925303413693 359.8125 L 184.8 361.03284621576233 L 185.04198915014604 361.59375 L 185.8333703879436 363.375 L 186.6458220191107 365.15625 L 187.2 366.33959326598426 L 187.4832566622393 366.9375 L 188.3498762581583 368.71875 L 189.2373595826608 370.49999999999994 L 189.6 371.20999340213416 L 190.15384351298 372.28124999999994 L 191.09672796659189 374.06249999999994 L 191.99999999999997 375.7319536781266 L 193.06096480337052 377.62499999999994 L 194.0814200187482 379.40624999999994 L 194.4 379.9502683149958 L 196.213291482291 382.96874999999994 L 196.8 383.9178858681264 L 198.46100881662466 386.53124999999994 L 199.20000000000002 387.66475413515184 L 200.83038447278827 390.09374999999994 L 201.60000000000002 391.2137751324648 L 202.061484893939 391.87499999999994 L 203.3280597973791 393.65624999999994 L 204.00000000000003 394.5845277016705 L 205.96162019152172 397.21874999999994 L 206.4 397.7938589345473 L 208.73972791686688 400.78124999999994 L 210.19420072833535 402.56249999999994 L 211.20000000000002 403.77371185737496 L 213.21508375149705 406.12499999999994 L 214.79674673391727 407.90625 L 216.00000000000006 409.2337115452129 L 218.09526813969842 411.46874999999994 L 220.80000000000007 414.2295115575572 L 221.61374170142403 415.03125 L 223.20000000000005 416.57025526907665 L 225.36587638218134 418.59374999999994 L 227.3492154477011 420.375 L 228.00000000000006 420.9489782075091 L 229.40561089764458 422.15625 L 230.40000000000003 422.9975338291851 L 232.80000000000004 424.9568664556614 L 233.76777102920974 425.71875 L 235.20000000000002 426.82941325732065 L 237.60000000000002 428.61760851805866 L 238.52488994078496 429.28125 L 240.00000000000006 430.32388373990125 L 241.08074449664375 431.0625 L 242.40000000000003 431.9506672017196 L 243.77427945852193 432.84375 L 244.80000000000004 433.5003830464718 L 246.6232550994103 434.62499999999994 L 247.20000000000005 434.9754499671684 L 249.60000000000002 436.3778650610792 L 252.00000000000003 437.7043234525446 L 254.4 438.9625654785512 L 256.42026087609827 439.96875 L 259.20000000000005 441.27759188471873 L 261.6 442.3359704936854 L 264.00000000000006 443.33257446678755 L 264.50586415852985 443.53125 L 266.40000000000003 444.26382595223146 L 268.80000000000007 445.1380933046479 L 271.20000000000005 445.9496358605792 L 273.6 446.7059015154151 L 276.00000000000006 447.4054974837143 L 280.80000000000007 448.6413357613104 L 281.83179747214103 448.875 L 283.20000000000005 449.1800378085746 L 285.6 449.6672596948512 L 288.00000000000006 450.10689367183664 L 290.4 450.49986704593266 L 291.4788311408606 450.65625 L 292.80000000000007 450.8447584660046 L 295.20000000000005 451.1436466627898 L 297.6 451.3996131176538 L 300 451.6138049120566 L 302.40000000000003 451.7874145427877 L 304.8 451.9216745532061 L 307.20000000000005 452.01785219260523 L 309.6 452.0772441381965 L 312.00000000000006 452.1011713114941 L 314.40000000000003 452.09097381800245 L 316.80000000000007 452.048006036101 L 319.20000000000005 451.9736318779495 L 321.6 451.8692202421345 L 324.00000000000006 451.73614067471044 L 326.40000000000003 451.5757592522722 L 328.80000000000007 451.3894346977849 L 331.20000000000005 451.1785147371088 L 333.6000000000001 450.9443327015228 L 336.00000000000006 450.68820437908744 L 338.4000000000001 450.4085043805937 L 340.80000000000007 450.1088391092765 L 343.20000000000005 449.79085516809016 L 345.6000000000001 449.4557880398744 L 348.00000000000006 449.1048428849808 L 349.5064387252568 448.875 L 350.40000000000003 448.73758550377033 L 352.80000000000007 448.35390550261957 L 355.20000000000005 447.9576524437351 L 357.6 447.54990826034117 L 360.00000000000006 447.1317172907338 L 362.40000000000003 446.69950609794444 L 364.80000000000007 446.25831013450653 L 367.20000000000005 445.8095155738134 L 369.6000000000001 445.35402051023095 L 372.00000000000006 444.88775923850426 L 374.40000000000003 444.41596044151555 L 376.80000000000007 443.93989769756456 L 378.8441001014211 443.53125 L 381.6000000000001 442.97143268670857 L 384.00000000000006 442.4812392078473 L 386.40000000000003 441.9895312118151 L 387.5653942764198 441.75 L 388.8 441.49392246809396 L 391.20000000000005 440.99514171533883 L 393.6 440.49653066990135 L 396 439.9985683468495 L 398.40000000000003 439.4961890096754 L 400.8 438.99499328372315 L 403.20000000000005 438.495704225784 L 404.687225284599 438.1875 L 405.6 437.9964159428187 L 408.00000000000006 437.49605482328275 L 410.40000000000003 436.9985508497592 L 412.80000000000007 436.5041366267386 L 415.20000000000005 436.00831402460153 L 417.6 435.51482960287376 L 420.00000000000006 435.02498828328453 L 421.9746538885329 434.62499999999994 L 424.80000000000007 434.04976297586234 L 427.20000000000005 433.56558184394 L 429.6000000000001 433.085321037056 L 430.81711810060625 432.84375 L 432.00000000000006 432.60609692823004 L 434.4000000000001 432.12782408347977 L 436.80000000000007 431.65336986399507 L 439.20000000000005 431.1826265573264 L 439.8174625328833 431.0625 L 441.6000000000001 430.7111643803537 L 444.00000000000006 430.2416621809083 L 446.40000000000003 429.77541117852456 L 448.8 429.3121904839081 L 451.20000000000005 428.8463463138578 L 453.6 428.38263648616754 L 456.00000000000006 427.92114448021545 L 458.1995111968482 427.5 L 460.8 426.99708673740236 L 463.20000000000005 426.53426363169785 L 465.6000000000001 426.0721619891179 L 467.4377189288513 425.71875 L 468.00000000000006 425.60892121194496 L 470.4000000000001 425.14084298964656 L 472.80000000000007 424.67204825383897 L 475.20000000000005 424.20201385161414 L 476.5473639695408 423.93749999999994 L 477.6000000000001 423.72740641613797 L 480.00000000000006 423.24682340523515 L 482.40000000000003 422.7632019716328 L 484.8 422.2759124052611 L 485.38583254989373 422.15625 L 487.20000000000005 421.7791621273684 L 489.6 421.27564603581175 L 492 420.7663009239884 L 493.8221499899233 420.375 L 494.40000000000003 420.248627134005 L 496.8 419.71794530489353 L 499.20000000000005 419.1789945224478 L 501.6 418.63096723006015 L 504.00000000000006 418.06540883304115 L 506.40000000000003 417.48832679170255 L 508.80000000000007 416.8993878973291 L 511.20000000000005 416.28993458289983 L 513.6 415.66522825396737 L 515.9790553201909 415.03125 L 518.4000000000001 414.35994424897444 L 520.8000000000001 413.6771927739104 L 522.2658624268893 413.24999999999994 L 523.2 412.9719533870527 L 525.6000000000001 412.2404075606409 L 528.0000000000001 411.48834608930963 L 530.4000000000001 410.7023347400538 L 532.8000000000001 409.8929966375008 L 533.3942809813749 409.68749999999994 L 535.2 409.0490051596222 L 537.6000000000001 408.175983348734 L 538.322430405588 407.90625 L 540.0000000000001 407.2654214923174 L 542.4000000000001 406.3220168018798 L 544.8000000000001 405.33556585621534 L 547.1323744111772 404.34374999999994 L 549.6000000000001 403.24242802108535 L 551.0796469177305 402.56249999999994 L 552.0000000000001 402.1291662665045 L 554.4000000000001 400.96805867857563 L 556.8000000000001 399.75140832441815 L 558.2369404895715 398.99999999999994 L 559.2 398.48350134917416 L 561.4965194760524 397.21874999999994 L 564.0000000000001 395.7703159636908 L 564.5603006880322 395.43749999999994 L 566.4000000000001 394.3156888667177 L 567.4549257858861 393.65624999999994 L 568.8000000000001 392.7926610687104 L 570.195263077652 391.87499999999994 L 571.2 391.1959360051136 L 572.7931158544226 390.09374999999994 L 573.6000000000001 389.51979102558073 L 575.259244362799 388.31249999999994 L 576.0000000000001 387.75803364715557 L 577.6034423885728 386.53124999999994 L 578.4 385.9039521001644 L 579.8346105232745 384.74999999999994 L 580.8 383.95025925621496 L 581.9608256443979 382.96874999999994 L 583.2 381.8890288563235 L 583.9894063420469 381.18749999999994 L 585.6 379.7116227487511 L 587.7761751241338 377.62499999999994 L 589.539927576571 375.84374999999994 L 590.4 374.9440701035143 L 591.2283318781106 374.06249999999994 L 592.8000000000001 372.33261686186887 L 594.3857321901942 370.49999999999994 L 595.2 369.5241090840723 L 595.8615837443926 368.71875 L 597.273261757357 366.9375 L 598.619131847341 365.15625 L 599.9096457721405 363.375 L 601.1356120352112 361.59375 L 602.3110995741706 359.8125 L 603.4257662251025 358.03125 L 604.4915997638429 356.25 L 604.8000000000001 355.71092989494866 L 605.5022581508954 354.46875 L 606.4631178700113 352.6875 L 607.2 351.2525447544879 L 608.2358220027226 349.125 L 609.0505867067633 347.34374999999994 L 609.6 346.0725084792665 L 609.8182510954712 345.5625 L 610.5365392105147 343.78124999999994 L 611.2106822204026 341.99999999999994 L 611.840735329294 340.21874999999994 L 612.4232979876053 338.43749999999994 L 612.9611877321281 336.65624999999994 L 613.4557553876342 334.87499999999994 L 613.9070225792773 333.09374999999994 L 614.3150109178202 331.31249999999994 L 614.6778366851017 329.53124999999994 L 614.9972895084778 327.74999999999994 L 615.2739587701733 325.96874999999994 L 615.507834199004 324.18749999999994 L 615.6989055204981 322.40624999999994 L 615.8471624568938 320.62499999999994 L 615.9525947271393 318.84374999999994 L 616.0151920468901 317.06249999999994 L 616.034944128509 315.28124999999994" stroke-opacity="0.8" stroke-linecap="round" stroke-linejoin="round" stroke-miterlimit="10" stroke-width="2.5"/><g transform="scale(19,19)"><g transform="translate(10.578947368421053,5.442639368421052)"><path fill="rgb(219,97,20)" stroke="none" paint-order="stroke fill markers" d=" M 0.46 -0.32 Q 0.46 -0.17400000000000002 0.423 -0.094 Q 0.364 0.018000000000000002 0.249 0.022 Q 0.158 0.022 0.10300000000000001 -0.05 Q 0.092 -0.063 0.084 -0.079 Q 0.039 -0.162 0.039 -0.32 Q 0.039 -0.467 0.076 -0.547 Q 0.126 -0.659 0.23800000000000002 -0.666 L 0.25 -0.666 Q 0.339 -0.666 0.395 -0.595 L 0.395 -0.594 Q 0.40900000000000003 -0.5760000000000001 0.42 -0.554 Q 0.46 -0.46900000000000003 0.46 -0.32 M 0.249 0 L 0.249 0 Q 0.312 0 0.34600000000000003 -0.061 Q 0.36 -0.088 0.366 -0.125 Q 0.377 -0.189 0.377 -0.332 Q 0.377 -0.47100000000000003 0.367 -0.527 Q 0.34900000000000003 -0.622 0.275 -0.641 Q 0.262 -0.644 0.249 -0.644 Q 0.179 -0.644 0.147 -0.5740000000000001 Q 0.136 -0.55 0.13 -0.516 Q 0.122 -0.462 0.122 -0.332 Q 0.122 -0.181 0.133 -0.121 Q 0.151 -0.025 0.221 -0.004 Q 0.23500000000000001 0 0.249 0 Z"/></g><g transform="translate(11.078947368421053,5.442639368421052)"><path fill="rgb(219,97,20)" stroke="none" paint-order="stroke fill markers" d=" M 0.18 -0.083 L 0.18 0 L 0.097 0 L 0.097 -0.083 L 0.18 -0.083 Z"/></g><g transform="translate(11.356947368421054,5.442639368421052)"><path fill="rgb(219,97,20)" stroke="none" paint-order="stroke fill markers" d=" M 0.163 -0.457 L 0.28700000000000003 -0.377 Q 0.386 -0.435 0.386 -0.517 Q 0.386 -0.583 0.326 -0.62 Q 0.291 -0.641 0.249 -0.641 Q 0.177 -0.641 0.136 -0.596 L 0.136 -0.596 L 0.135 -0.595 Q 0.113 -0.5690000000000001 0.113 -0.538 Q 0.113 -0.49 0.163 -0.457 M 0.309 -0.362 L 0.309 -0.362 Q 0.386 -0.314 0.403 -0.296 Q 0.406 -0.294 0.40800000000000003 -0.291 Q 0.457 -0.23700000000000002 0.457 -0.168 Q 0.457 -0.079 0.383 -0.023 Q 0.325 0.022 0.249 0.022 Q 0.154 0.022 0.092 -0.037 Q 0.042 -0.085 0.042 -0.151 Q 0.042 -0.263 0.186 -0.335 Q 0.124 -0.377 0.113 -0.389 Q 0.069 -0.438 0.069 -0.499 Q 0.069 -0.579 0.136 -0.629 Q 0.186 -0.666 0.25 -0.666 Q 0.337 -0.666 0.391 -0.611 Q 0.43 -0.5710000000000001 0.43 -0.517 Q 0.43 -0.424 0.309 -0.362 M 0.209 -0.32 L 0.209 -0.32 Q 0.097 -0.25 0.092 -0.151 Q 0.092 -0.078 0.155 -0.035 Q 0.197 -0.006 0.25 -0.006 Q 0.328 -0.006 0.375 -0.055 Q 0.40700000000000003 -0.089 0.40700000000000003 -0.132 Q 0.40700000000000003 -0.19 0.343 -0.23500000000000001 Q 0.341 -0.23600000000000002 0.332 -0.242 L 0.209 -0.32 Z"/></g><g transform="translate(11.856947368421054,5.442639368421052)"><path fill="rgb(219,97,20)" stroke="none" paint-order="stroke fill markers" d=" M 0.334 -0.302 L 0.3 -0.165 Q 0.28300000000000003 -0.097 0.28300000000000003 -0.077 Q 0.28300000000000003 -0.025 0.32 -0.014 Q 0.328 -0.011 0.338 -0.011 Q 0.388 -0.011 0.429 -0.061 Q 0.456 -0.093 0.47100000000000003 -0.14200000000000002 Q 0.47400000000000003 -0.153 0.484 -0.153 Q 0.496 -0.153 0.496 -0.14300000000000002 Q 0.496 -0.11800000000000001 0.465 -0.07100000000000001 Q 0.41100000000000003 0.011 0.336 0.011 Q 0.268 0.011 0.23700000000000002 -0.046 Q 0.231 -0.055 0.228 -0.065 Q 0.20400000000000001 -0.017 0.162 0.002 Q 0.14300000000000002 0.011 0.123 0.011 Q 0.063 0.011 0.039 -0.024 Q 0.029 -0.037 0.029 -0.055 Q 0.029 -0.092 0.061 -0.107 Q 0.07200000000000001 -0.113 0.084 -0.113 Q 0.114 -0.113 0.12 -0.088 Q 0.121 -0.083 0.121 -0.078 Q 0.121 -0.044 0.08700000000000001 -0.028 Q 0.081 -0.025 0.074 -0.024 Q 0.095 -0.011 0.124 -0.011 Q 0.177 -0.011 0.20800000000000002 -0.082 Q 0.214 -0.097 0.219 -0.115 Q 0.273 -0.319 0.273 -0.353 Q 0.267 -0.41500000000000004 0.219 -0.42 Q 0.167 -0.42 0.124 -0.367 L 0.124 -0.366 Q 0.124 -0.365 0.123 -0.365 Q 0.108 -0.34500000000000003 0.096 -0.319 Q 0.091 -0.307 0.08700000000000001 -0.295 L 0.085 -0.289 Q 0.083 -0.278 0.07200000000000001 -0.278 Q 0.06 -0.278 0.06 -0.28800000000000003 Q 0.06 -0.313 0.092 -0.36 Q 0.146 -0.442 0.221 -0.442 Q 0.298 -0.442 0.329 -0.366 Q 0.361 -0.428 0.41400000000000003 -0.44 Q 0.424 -0.442 0.434 -0.442 Q 0.493 -0.442 0.517 -0.40900000000000003 Q 0.527 -0.395 0.527 -0.376 Q 0.527 -0.335 0.49 -0.321 Q 0.481 -0.318 0.47300000000000003 -0.318 Q 0.442 -0.318 0.436 -0.34500000000000003 Q 0.435 -0.34900000000000003 0.435 -0.353 Q 0.435 -0.383 0.464 -0.4 Q 0.47300000000000003 -0.405 0.483 -0.40700000000000003 Q 0.462 -0.42 0.433 -0.42 Q 0.365 -0.42 0.337 -0.314 Q 0.335 -0.308 0.334 -0.302 Z"/></g><g transform="translate(12.428947368421053,5.029747368421051) scale(0.7,0.7)"><path fill="rgb(219,97,20)" stroke="none" paint-order="stroke fill markers" d=" M 0.449 -0.17400000000000002 L 0.449 -0.17400000000000002 L 0.421 0 L 0.05 0 Q 0.05 -0.025 0.056 -0.032 L 0.061 -0.037 L 0.253 -0.251 Q 0.358 -0.369 0.358 -0.47200000000000003 Q 0.358 -0.561 0.304 -0.607 L 0.303 -0.608 L 0.302 -0.608 Q 0.27 -0.635 0.224 -0.635 Q 0.152 -0.635 0.109 -0.5730000000000001 Q 0.097 -0.555 0.089 -0.533 Q 0.092 -0.534 0.10200000000000001 -0.534 Q 0.14200000000000002 -0.534 0.153 -0.498 L 0.153 -0.497 Q 0.155 -0.49 0.155 -0.482 Q 0.155 -0.442 0.117 -0.431 Q 0.109 -0.429 0.10300000000000001 -0.429 Q 0.066 -0.429 0.054 -0.46 Q 0.05 -0.47100000000000003 0.05 -0.485 Q 0.05 -0.562 0.109 -0.617 Q 0.162 -0.666 0.23700000000000002 -0.666 Q 0.34700000000000003 -0.666 0.40800000000000003 -0.592 Q 0.443 -0.549 0.448 -0.49 Q 0.449 -0.481 0.449 -0.47200000000000003 Q 0.449 -0.399 0.394 -0.333 Q 0.365 -0.299 0.304 -0.243 L 0.243 -0.189 L 0.233 -0.18 L 0.127 -0.077 L 0.307 -0.077 Q 0.395 -0.077 0.402 -0.085 Q 0.41200000000000003 -0.099 0.424 -0.17400000000000002 L 0.449 -0.17400000000000002 Z"/></g><g transform="translate(13.027387064588012,5.442639368421052)"><path fill="rgb(219,97,20)" stroke="none" paint-order="stroke fill markers" d=" M 0.40900000000000003 -0.23 L 0.40900000000000003 0.05 Q 0.40900000000000003 0.082 0.389 0.083 Q 0.369 0.083 0.369 0.05 L 0.369 -0.23 L 0.089 -0.23 Q 0.057 -0.23 0.056 -0.25 Q 0.056 -0.27 0.089 -0.27 L 0.369 -0.27 L 0.369 -0.55 Q 0.369 -0.582 0.389 -0.583 Q 0.40900000000000003 -0.583 0.40900000000000003 -0.55 L 0.40900000000000003 -0.27 L 0.6880000000000001 -0.27 Q 0.72 -0.27 0.721 -0.25 Q 0.721 -0.23 0.6880000000000001 -0.23 L 0.40900000000000003 -0.23 Z"/></g><g transform="translate(14.027609286810234,5.442639368421052)"><path fill="rgb(219,97,20)" stroke="none" paint-order="stroke fill markers" d=" M 0.449 -0.17400000000000002 L 0.449 -0.17400000000000002 L 0.421 0 L 0.05 0 Q 0.05 -0.025 0.056 -0.032 L 0.061 -0.037 L 0.253 -0.251 Q 0.358 -0.369 0.358 -0.47200000000000003 Q 0.358 -0.561 0.304 -0.607 L 0.303 -0.608 L 0.302 -0.608 Q 0.27 -0.635 0.224 -0.635 Q 0.152 -0.635 0.109 -0.5730000000000001 Q 0.097 -0.555 0.089 -0.533 Q 0.092 -0.534 0.10200000000000001 -0.534 Q 0.14200000000000002 -0.534 0.153 -0.498 L 0.153 -0.497 Q 0.155 -0.49 0.155 -0.482 Q 0.155 -0.442 0.117 -0.431 Q 0.109 -0.429 0.10300000000000001 -0.429 Q 0.066 -0.429 0.054 -0.46 Q 0.05 -0.47100000000000003 0.05 -0.485 Q 0.05 -0.562 0.109 -0.617 Q 0.162 -0.666 0.23700000000000002 -0.666 Q 0.34700000000000003 -0.666 0.40800000000000003 -0.592 Q 0.443 -0.549 0.448 -0.49 Q 0.449 -0.481 0.449 -0.47200000000000003 Q 0.449 -0.399 0.394 -0.333 Q 0.365 -0.299 0.304 -0.243 L 0.243 -0.189 L 0.233 -0.18 L 0.127 -0.077 L 0.307 -0.077 Q 0.395 -0.077 0.402 -0.085 Q 0.41200000000000003 -0.099 0.424 -0.17400000000000002 L 0.449 -0.17400000000000002 Z"/></g><g transform="translate(14.527609286810234,5.442639368421052)"><path fill="rgb(219,97,20)" stroke="none" paint-order="stroke fill markers" d=" M 0.486 -0.381 L 0.39 0.001 Q 0.366 0.099 0.28300000000000003 0.16 Q 0.222 0.20500000000000002 0.156 0.20500000000000002 Q 0.089 0.20500000000000002 0.061 0.159 Q 0.05 0.14 0.05 0.11800000000000001 Q 0.05 0.067 0.091 0.055 Q 0.099 0.053 0.106 0.053 Q 0.138 0.053 0.14200000000000002 0.081 Q 0.14300000000000002 0.084 0.14300000000000002 0.088 Q 0.14300000000000002 0.111 0.123 0.129 Q 0.109 0.14100000000000001 0.08 0.14100000000000001 Q 0.098 0.183 0.156 0.183 Q 0.218 0.183 0.266 0.12 Q 0.305 0.068 0.328 -0.021 Q 0.329 -0.025 0.331 -0.034 Q 0.28600000000000003 0.011 0.23 0.011 Q 0.15 0.011 0.121 -0.048 Q 0.108 -0.074 0.108 -0.108 Q 0.108 -0.163 0.161 -0.305 Q 0.163 -0.311 0.166 -0.318 Q 0.183 -0.364 0.183 -0.388 Q 0.183 -0.42 0.158 -0.42 Q 0.10300000000000001 -0.42 0.068 -0.329 L 0.068 -0.328 Q 0.062 -0.313 0.057 -0.296 Q 0.046 -0.279 0.041 -0.278 Q 0.029 -0.278 0.029 -0.28800000000000003 Q 0.029 -0.306 0.05 -0.35100000000000003 Q 0.094 -0.442 0.161 -0.442 Q 0.214 -0.442 0.23500000000000001 -0.397 Q 0.243 -0.38 0.243 -0.36 Q 0.243 -0.339 0.223 -0.28800000000000003 Q 0.17200000000000001 -0.156 0.17200000000000001 -0.092 Q 0.17200000000000001 -0.011 0.234 -0.011 Q 0.292 -0.011 0.335 -0.073 Q 0.34500000000000003 -0.088 0.34700000000000003 -0.096 L 0.392 -0.276 Q 0.399 -0.309 0.41200000000000003 -0.356 Q 0.422 -0.399 0.426 -0.41000000000000003 Q 0.439 -0.431 0.461 -0.431 Q 0.486 -0.426 0.49 -0.404 Q 0.49 -0.395 0.486 -0.381 Z"/></g><g transform="translate(15.053609286810234,5.029747368421051) scale(0.7,0.7)"><path fill="rgb(219,97,20)" stroke="none" paint-order="stroke fill markers" d=" M 0.449 -0.17400000000000002 L 0.449 -0.17400000000000002 L 0.421 0 L 0.05 0 Q 0.05 -0.025 0.056 -0.032 L 0.061 -0.037 L 0.253 -0.251 Q 0.358 -0.369 0.358 -0.47200000000000003 Q 0.358 -0.561 0.304 -0.607 L 0.303 -0.608 L 0.302 -0.608 Q 0.27 -0.635 0.224 -0.635 Q 0.152 -0.635 0.109 -0.5730000000000001 Q 0.097 -0.555 0.089 -0.533 Q 0.092 -0.534 0.10200000000000001 -0.534 Q 0.14200000000000002 -0.534 0.153 -0.498 L 0.153 -0.497 Q 0.155 -0.49 0.155 -0.482 Q 0.155 -0.442 0.117 -0.431 Q 0.109 -0.429 0.10300000000000001 -0.429 Q 0.066 -0.429 0.054 -0.46 Q 0.05 -0.47100000000000003 0.05 -0.485 Q 0.05 -0.562 0.109 -0.617 Q 0.162 -0.666 0.23700000000000002 -0.666 Q 0.34700000000000003 -0.666 0.40800000000000003 -0.592 Q 0.443 -0.549 0.448 -0.49 Q 0.449 -0.481 0.449 -0.47200000000000003 Q 0.449 -0.399 0.394 -0.333 Q 0.365 -0.299 0.304 -0.243 L 0.243 -0.189 L 0.233 -0.18 L 0.127 -0.077 L 0.307 -0.077 Q 0.395 -0.077 0.402 -0.085 Q 0.41200000000000003 -0.099 0.424 -0.17400000000000002 L 0.449 -0.17400000000000002 Z"/></g><g transform="translate(15.652048982977192,5.442639368421052)"><path fill="rgb(219,97,20)" stroke="none" paint-order="stroke fill markers" d=" M 0.40900000000000003 -0.23 L 0.40900000000000003 0.05 Q 0.40900000000000003 0.082 0.389 0.083 Q 0.369 0.083 0.369 0.05 L 0.369 -0.23 L 0.089 -0.23 Q 0.057 -0.23 0.056 -0.25 Q 0.056 -0.27 0.089 -0.27 L 0.369 -0.27 L 0.369 -0.55 Q 0.369 -0.582 0.389 -0.583 Q 0.40900000000000003 -0.583 0.40900000000000003 -0.55 L 0.40900000000000003 -0.27 L 0.6880000000000001 -0.27 Q 0.72 -0.27 0.721 -0.25 Q 0.721 -0.23 0.6880000000000001 -0.23 L 0.40900000000000003 -0.23 Z"/></g><g transform="translate(16.652271205199412,5.442639368421052)"><path fill="rgb(219,97,20)" stroke="none" paint-order="stroke fill markers" d=" M 0.20800000000000002 -0.194 L 0.20800000000000002 -0.194 Q 0.122 -0.211 0.095 -0.227 Q 0.085 -0.232 0.076 -0.24 Q 0.033 -0.275 0.033 -0.325 Q 0.033 -0.395 0.095 -0.427 Q 0.134 -0.448 0.193 -0.448 Q 0.249 -0.448 0.28700000000000003 -0.42 Q 0.298 -0.429 0.304 -0.436 Q 0.317 -0.448 0.324 -0.448 Q 0.334 -0.439 0.335 -0.424 L 0.335 -0.323 Q 0.335 -0.302 0.329 -0.3 L 0.328 -0.3 L 0.327 -0.299 L 0.322 -0.299 Q 0.311 -0.299 0.31 -0.308 Q 0.303 -0.40900000000000003 0.227 -0.426 Q 0.211 -0.429 0.193 -0.429 Q 0.099 -0.429 0.083 -0.371 Q 0.081 -0.362 0.081 -0.353 Q 0.081 -0.302 0.158 -0.281 Q 0.17300000000000001 -0.277 0.20400000000000001 -0.271 Q 0.276 -0.257 0.307 -0.232 Q 0.313 -0.228 0.318 -0.223 Q 0.36 -0.181 0.36 -0.128 Q 0.36 -0.043000000000000003 0.29 -0.008 Q 0.252 0.011 0.199 0.011 Q 0.134 0.011 0.089 -0.032 L 0.069 -0.009000000000000001 Q 0.049 0.011 0.044 0.011 Q 0.034 0.002 0.033 -0.013000000000000001 L 0.033 -0.145 Q 0.033 -0.167 0.04 -0.169 L 0.04 -0.169 L 0.041 -0.17 L 0.046 -0.17 Q 0.056 -0.17 0.059000000000000004 -0.159 Q 0.059000000000000004 -0.157 0.06 -0.153 Q 0.08600000000000001 -0.037 0.159 -0.016 Q 0.177 -0.011 0.199 -0.011 Q 0.289 -0.011 0.308 -0.074 Q 0.312 -0.08700000000000001 0.312 -0.10200000000000001 Q 0.312 -0.17500000000000002 0.20800000000000002 -0.194 Z"/></g><g transform="translate(17.04627120519941,5.442639368421052)"><path fill="rgb(219,97,20)" stroke="none" paint-order="stroke fill markers" d=" M 0.177 -0.442 L 0.177 -0.442 L 0.177 -0.075 Q 0.177 -0.044 0.189 -0.037 L 0.189 -0.037 Q 0.201 -0.031 0.247 -0.031 L 0.247 0 Q 0.145 -0.003 0.14300000000000002 -0.003 Q 0.129 -0.003 0.033 0 L 0.033 -0.031 Q 0.092 -0.031 0.10200000000000001 -0.04 L 0.10400000000000001 -0.042 Q 0.111 -0.05 0.111 -0.076 L 0.111 -0.34500000000000003 Q 0.111 -0.385 0.095 -0.393 L 0.094 -0.393 L 0.094 -0.393 L 0.093 -0.394 L 0.093 -0.394 Q 0.08 -0.4 0.037 -0.4 L 0.037 -0.431 L 0.177 -0.442 M 0.181 -0.616 Q 0.181 -0.579 0.148 -0.5670000000000001 Q 0.138 -0.5630000000000001 0.128 -0.5630000000000001 Q 0.093 -0.5630000000000001 0.079 -0.595 L 0.079 -0.596 Q 0.075 -0.606 0.075 -0.616 Q 0.075 -0.647 0.10300000000000001 -0.662 Q 0.114 -0.669 0.128 -0.669 Q 0.162 -0.669 0.176 -0.639 Q 0.181 -0.628 0.181 -0.616 Z"/></g><g transform="translate(17.32427120519941,5.442639368421052)"><path fill="rgb(219,97,20)" stroke="none" paint-order="stroke fill markers" d=" M 0.11 -0.34400000000000003 Q 0.11 -0.383 0.095 -0.392 Q 0.083 -0.399 0.052000000000000005 -0.4 L 0.032 -0.4 L 0.032 -0.431 L 0.17300000000000001 -0.442 L 0.17300000000000001 -0.337 Q 0.22 -0.442 0.321 -0.442 Q 0.396 -0.442 0.426 -0.405 Q 0.453 -0.374 0.456 -0.32 Q 0.457 -0.301 0.457 -0.252 L 0.457 -0.061 Q 0.458 -0.037 0.486 -0.033 Q 0.498 -0.031 0.535 -0.031 L 0.535 0 Q 0.433 -0.003 0.423 -0.003 Q 0.41500000000000004 -0.003 0.31 0 L 0.31 -0.031 Q 0.369 -0.031 0.379 -0.04 L 0.381 -0.042 Q 0.388 -0.05 0.388 -0.076 L 0.388 -0.309 Q 0.388 -0.40800000000000003 0.331 -0.418 Q 0.323 -0.42 0.314 -0.42 Q 0.253 -0.42 0.212 -0.367 Q 0.179 -0.324 0.179 -0.26 L 0.179 -0.076 Q 0.179 -0.042 0.195 -0.036000000000000004 Q 0.20600000000000002 -0.031 0.257 -0.031 L 0.257 0 Q 0.155 -0.003 0.145 -0.003 Q 0.137 -0.003 0.032 0 L 0.032 -0.031 Q 0.091 -0.031 0.101 -0.04 L 0.10300000000000001 -0.042 Q 0.11 -0.05 0.11 -0.076 L 0.11 -0.34400000000000003 Z"/></g><g transform="translate(18.04693787186608,5.442639368421052)"><path fill="rgb(219,97,20)" stroke="none" paint-order="stroke fill markers" d=" M 0.334 -0.302 L 0.3 -0.165 Q 0.28300000000000003 -0.097 0.28300000000000003 -0.077 Q 0.28300000000000003 -0.025 0.32 -0.014 Q 0.328 -0.011 0.338 -0.011 Q 0.388 -0.011 0.429 -0.061 Q 0.456 -0.093 0.47100000000000003 -0.14200000000000002 Q 0.47400000000000003 -0.153 0.484 -0.153 Q 0.496 -0.153 0.496 -0.14300000000000002 Q 0.496 -0.11800000000000001 0.465 -0.07100000000000001 Q 0.41100000000000003 0.011 0.336 0.011 Q 0.268 0.011 0.23700000000000002 -0.046 Q 0.231 -0.055 0.228 -0.065 Q 0.20400000000000001 -0.017 0.162 0.002 Q 0.14300000000000002 0.011 0.123 0.011 Q 0.063 0.011 0.039 -0.024 Q 0.029 -0.037 0.029 -0.055 Q 0.029 -0.092 0.061 -0.107 Q 0.07200000000000001 -0.113 0.084 -0.113 Q 0.114 -0.113 0.12 -0.088 Q 0.121 -0.083 0.121 -0.078 Q 0.121 -0.044 0.08700000000000001 -0.028 Q 0.081 -0.025 0.074 -0.024 Q 0.095 -0.011 0.124 -0.011 Q 0.177 -0.011 0.20800000000000002 -0.082 Q 0.214 -0.097 0.219 -0.115 Q 0.273 -0.319 0.273 -0.353 Q 0.267 -0.41500000000000004 0.219 -0.42 Q 0.167 -0.42 0.124 -0.367 L 0.124 -0.366 Q 0.124 -0.365 0.123 -0.365 Q 0.108 -0.34500000000000003 0.096 -0.319 Q 0.091 -0.307 0.08700000000000001 -0.295 L 0.085 -0.289 Q 0.083 -0.278 0.07200000000000001 -0.278 Q 0.06 -0.278 0.06 -0.28800000000000003 Q 0.06 -0.313 0.092 -0.36 Q 0.146 -0.442 0.221 -0.442 Q 0.298 -0.442 0.329 -0.366 Q 0.361 -0.428 0.41400000000000003 -0.44 Q 0.424 -0.442 0.434 -0.442 Q 0.493 -0.442 0.517 -0.40900000000000003 Q 0.527 -0.395 0.527 -0.376 Q 0.527 -0.335 0.49 -0.321 Q 0.481 -0.318 0.47300000000000003 -0.318 Q 0.442 -0.318 0.436 -0.34500000000000003 Q 0.435 -0.34900000000000003 0.435 -0.353 Q 0.435 -0.383 0.464 -0.4 Q 0.47300000000000003 -0.405 0.483 -0.40700000000000003 Q 0.462 -0.42 0.433 -0.42 Q 0.365 -0.42 0.337 -0.314 Q 0.335 -0.308 0.334 -0.302 Z"/></g><g transform="translate(18.841160094088302,5.442639368421052)"><path fill="rgb(219,97,20)" stroke="none" paint-order="stroke fill markers" d=" M 0.661 -0.23 L 0.116 -0.23 Q 0.084 -0.23 0.083 -0.25 Q 0.083 -0.27 0.116 -0.27 L 0.661 -0.27 Q 0.6930000000000001 -0.27 0.6940000000000001 -0.25 Q 0.6940000000000001 -0.23 0.661 -0.23 Z"/></g><g transform="translate(19.841382316310522,5.442639368421052)"><path fill="rgb(219,97,20)" stroke="none" paint-order="stroke fill markers" d=" M 0.486 -0.381 L 0.39 0.001 Q 0.366 0.099 0.28300000000000003 0.16 Q 0.222 0.20500000000000002 0.156 0.20500000000000002 Q 0.089 0.20500000000000002 0.061 0.159 Q 0.05 0.14 0.05 0.11800000000000001 Q 0.05 0.067 0.091 0.055 Q 0.099 0.053 0.106 0.053 Q 0.138 0.053 0.14200000000000002 0.081 Q 0.14300000000000002 0.084 0.14300000000000002 0.088 Q 0.14300000000000002 0.111 0.123 0.129 Q 0.109 0.14100000000000001 0.08 0.14100000000000001 Q 0.098 0.183 0.156 0.183 Q 0.218 0.183 0.266 0.12 Q 0.305 0.068 0.328 -0.021 Q 0.329 -0.025 0.331 -0.034 Q 0.28600000000000003 0.011 0.23 0.011 Q 0.15 0.011 0.121 -0.048 Q 0.108 -0.074 0.108 -0.108 Q 0.108 -0.163 0.161 -0.305 Q 0.163 -0.311 0.166 -0.318 Q 0.183 -0.364 0.183 -0.388 Q 0.183 -0.42 0.158 -0.42 Q 0.10300000000000001 -0.42 0.068 -0.329 L 0.068 -0.328 Q 0.062 -0.313 0.057 -0.296 Q 0.046 -0.279 0.041 -0.278 Q 0.029 -0.278 0.029 -0.28800000000000003 Q 0.029 -0.306 0.05 -0.35100000000000003 Q 0.094 -0.442 0.161 -0.442 Q 0.214 -0.442 0.23500000000000001 -0.397 Q 0.243 -0.38 0.243 -0.36 Q 0.243 -0.339 0.223 -0.28800000000000003 Q 0.17200000000000001 -0.156 0.17200000000000001 -0.092 Q 0.17200000000000001 -0.011 0.234 -0.011 Q 0.292 -0.011 0.335 -0.073 Q 0.34500000000000003 -0.088 0.34700000000000003 -0.096 L 0.392 -0.276 Q 0.399 -0.309 0.41200000000000003 -0.356 Q 0.422 -0.399 0.426 -0.41000000000000003 Q 0.439 -0.431 0.461 -0.431 Q 0.486 -0.426 0.49 -0.404 Q 0.49 -0.395 0.486 -0.381 Z"/></g><g transform="translate(20.53404898297719,5.442639368421052)"><path fill="rgb(219,97,20)" stroke="none" paint-order="stroke fill markers" d=" M 0.359 -0.386 Q 0.323 -0.423 0.252 -0.423 Q 0.189 -0.423 0.151 -0.363 Q 0.117 -0.309 0.117 -0.218 Q 0.117 -0.074 0.203 -0.029 Q 0.23 -0.014 0.258 -0.014 Q 0.356 -0.014 0.389 -0.11900000000000001 Q 0.392 -0.129 0.402 -0.129 Q 0.41500000000000004 -0.129 0.41500000000000004 -0.11900000000000001 Q 0.41500000000000004 -0.1 0.393 -0.065 Q 0.34400000000000003 0.011 0.249 0.011 Q 0.155 0.011 0.09 -0.063 Q 0.034 -0.128 0.034 -0.216 Q 0.034 -0.319 0.105 -0.388 Q 0.166 -0.448 0.251 -0.448 Q 0.334 -0.448 0.378 -0.403 Q 0.404 -0.376 0.404 -0.341 Q 0.404 -0.303 0.371 -0.295 Q 0.365 -0.294 0.358 -0.294 Q 0.323 -0.294 0.314 -0.326 Q 0.312 -0.332 0.312 -0.34 Q 0.312 -0.376 0.34700000000000003 -0.384 Q 0.353 -0.386 0.359 -0.386 Z"/></g><g transform="translate(20.97804898297719,5.442639368421052)"><path fill="rgb(219,97,20)" stroke="none" paint-order="stroke fill markers" d=" M 0.47100000000000003 -0.214 L 0.47100000000000003 -0.214 Q 0.47100000000000003 -0.111 0.395 -0.044 Q 0.332 0.011 0.249 0.011 Q 0.153 0.011 0.08700000000000001 -0.061 Q 0.028 -0.126 0.028 -0.214 Q 0.028 -0.316 0.101 -0.386 Q 0.164 -0.448 0.25 -0.448 Q 0.34700000000000003 -0.448 0.41300000000000003 -0.371 Q 0.47100000000000003 -0.304 0.47100000000000003 -0.214 M 0.25 -0.014 L 0.25 -0.014 Q 0.317 -0.014 0.356 -0.07 L 0.366 -0.088 Q 0.388 -0.132 0.388 -0.222 Q 0.388 -0.318 0.362 -0.361 Q 0.319 -0.423 0.249 -0.426 Q 0.187 -0.426 0.147 -0.376 Q 0.14 -0.368 0.135 -0.359 Q 0.111 -0.315 0.111 -0.222 Q 0.111 -0.125 0.136 -0.081 Q 0.178 -0.016 0.25 -0.014 Z"/></g><g transform="translate(21.47804898297719,5.442639368421052)"><path fill="rgb(219,97,20)" stroke="none" paint-order="stroke fill markers" d=" M 0.20800000000000002 -0.194 L 0.20800000000000002 -0.194 Q 0.122 -0.211 0.095 -0.227 Q 0.085 -0.232 0.076 -0.24 Q 0.033 -0.275 0.033 -0.325 Q 0.033 -0.395 0.095 -0.427 Q 0.134 -0.448 0.193 -0.448 Q 0.249 -0.448 0.28700000000000003 -0.42 Q 0.298 -0.429 0.304 -0.436 Q 0.317 -0.448 0.324 -0.448 Q 0.334 -0.439 0.335 -0.424 L 0.335 -0.323 Q 0.335 -0.302 0.329 -0.3 L 0.328 -0.3 L 0.327 -0.299 L 0.322 -0.299 Q 0.311 -0.299 0.31 -0.308 Q 0.303 -0.40900000000000003 0.227 -0.426 Q 0.211 -0.429 0.193 -0.429 Q 0.099 -0.429 0.083 -0.371 Q 0.081 -0.362 0.081 -0.353 Q 0.081 -0.302 0.158 -0.281 Q 0.17300000000000001 -0.277 0.20400000000000001 -0.271 Q 0.276 -0.257 0.307 -0.232 Q 0.313 -0.228 0.318 -0.223 Q 0.36 -0.181 0.36 -0.128 Q 0.36 -0.043000000000000003 0.29 -0.008 Q 0.252 0.011 0.199 0.011 Q 0.134 0.011 0.089 -0.032 L 0.069 -0.009000000000000001 Q 0.049 0.011 0.044 0.011 Q 0.034 0.002 0.033 -0.013000000000000001 L 0.033 -0.145 Q 0.033 -0.167 0.04 -0.169 L 0.04 -0.169 L 0.041 -0.17 L 0.046 -0.17 Q 0.056 -0.17 0.059000000000000004 -0.159 Q 0.059000000000000004 -0.157 0.06 -0.153 Q 0.08600000000000001 -0.037 0.159 -0.016 Q 0.177 -0.011 0.199 -0.011 Q 0.289 -0.011 0.308 -0.074 Q 0.312 -0.08700000000000001 0.312 -0.10200000000000001 Q 0.312 -0.17500000000000002 0.20800000000000002 -0.194 Z"/></g><g transform="translate(21.87204898297719,5.029747368421051) scale(0.7,0.7)"><path fill="rgb(219,97,20)" stroke="none" paint-order="stroke fill markers" d=" M 0.449 -0.17400000000000002 L 0.449 -0.17400000000000002 L 0.421 0 L 0.05 0 Q 0.05 -0.025 0.056 -0.032 L 0.061 -0.037 L 0.253 -0.251 Q 0.358 -0.369 0.358 -0.47200000000000003 Q 0.358 -0.561 0.304 -0.607 L 0.303 -0.608 L 0.302 -0.608 Q 0.27 -0.635 0.224 -0.635 Q 0.152 -0.635 0.109 -0.5730000000000001 Q 0.097 -0.555 0.089 -0.533 Q 0.092 -0.534 0.10200000000000001 -0.534 Q 0.14200000000000002 -0.534 0.153 -0.498 L 0.153 -0.497 Q 0.155 -0.49 0.155 -0.482 Q 0.155 -0.442 0.117 -0.431 Q 0.109 -0.429 0.10300000000000001 -0.429 Q 0.066 -0.429 0.054 -0.46 Q 0.05 -0.47100000000000003 0.05 -0.485 Q 0.05 -0.562 0.109 -0.617 Q 0.162 -0.666 0.23700000000000002 -0.666 Q 0.34700000000000003 -0.666 0.40800000000000003 -0.592 Q 0.443 -0.549 0.448 -0.49 Q 0.449 -0.481 0.449 -0.47200000000000003 Q 0.449 -0.399 0.394 -0.333 Q 0.365 -0.299 0.304 -0.243 L 0.243 -0.189 L 0.233 -0.18 L 0.127 -0.077 L 0.307 -0.077 Q 0.395 -0.077 0.402 -0.085 Q 0.41200000000000003 -0.099 0.424 -0.17400000000000002 L 0.449 -0.17400000000000002 Z"/></g><g transform="translate(22.414933123588593,5.442639368421052)"><path fill="rgb(219,97,20)" stroke="none" paint-order="stroke fill markers" d=" M 0.334 -0.302 L 0.3 -0.165 Q 0.28300000000000003 -0.097 0.28300000000000003 -0.077 Q 0.28300000000000003 -0.025 0.32 -0.014 Q 0.328 -0.011 0.338 -0.011 Q 0.388 -0.011 0.429 -0.061 Q 0.456 -0.093 0.47100000000000003 -0.14200000000000002 Q 0.47400000000000003 -0.153 0.484 -0.153 Q 0.496 -0.153 0.496 -0.14300000000000002 Q 0.496 -0.11800000000000001 0.465 -0.07100000000000001 Q 0.41100000000000003 0.011 0.336 0.011 Q 0.268 0.011 0.23700000000000002 -0.046 Q 0.231 -0.055 0.228 -0.065 Q 0.20400000000000001 -0.017 0.162 0.002 Q 0.14300000000000002 0.011 0.123 0.011 Q 0.063 0.011 0.039 -0.024 Q 0.029 -0.037 0.029 -0.055 Q 0.029 -0.092 0.061 -0.107 Q 0.07200000000000001 -0.113 0.084 -0.113 Q 0.114 -0.113 0.12 -0.088 Q 0.121 -0.083 0.121 -0.078 Q 0.121 -0.044 0.08700000000000001 -0.028 Q 0.081 -0.025 0.074 -0.024 Q 0.095 -0.011 0.124 -0.011 Q 0.177 -0.011 0.20800000000000002 -0.082 Q 0.214 -0.097 0.219 -0.115 Q 0.273 -0.319 0.273 -0.353 Q 0.267 -0.41500000000000004 0.219 -0.42 Q 0.167 -0.42 0.124 -0.367 L 0.124 -0.366 Q 0.124 -0.365 0.123 -0.365 Q 0.108 -0.34500000000000003 0.096 -0.319 Q 0.091 -0.307 0.08700000000000001 -0.295 L 0.085 -0.289 Q 0.083 -0.278 0.07200000000000001 -0.278 Q 0.06 -0.278 0.06 -0.28800000000000003 Q 0.06 -0.313 0.092 -0.36 Q 0.146 -0.442 0.221 -0.442 Q 0.298 -0.442 0.329 -0.366 Q 0.361 -0.428 0.41400000000000003 -0.44 Q 0.424 -0.442 0.434 -0.442 Q 0.493 -0.442 0.517 -0.40900000000000003 Q 0.527 -0.395 0.527 -0.376 Q 0.527 -0.335 0.49 -0.321 Q 0.481 -0.318 0.47300000000000003 -0.318 Q 0.442 -0.318 0.436 -0.34500000000000003 Q 0.435 -0.34900000000000003 0.435 -0.353 Q 0.435 -0.383 0.464 -0.4 Q 0.47300000000000003 -0.405 0.483 -0.40700000000000003 Q 0.462 -0.42 0.433 -0.42 Q 0.365 -0.42 0.337 -0.314 Q 0.335 -0.308 0.334 -0.302 Z"/></g><g transform="translate(23.26471090136637,5.442639368421052)"><path fill="rgb(219,97,20)" stroke="none" paint-order="stroke fill markers" d=" M 0.687 -0.327 L 0.09 -0.327 Q 0.058 -0.327 0.056 -0.34700000000000003 Q 0.056 -0.367 0.089 -0.367 L 0.6880000000000001 -0.367 Q 0.72 -0.367 0.721 -0.34700000000000003 Q 0.721 -0.327 0.687 -0.327 M 0.6880000000000001 -0.133 L 0.089 -0.133 Q 0.057 -0.133 0.056 -0.153 Q 0.056 -0.17300000000000001 0.09 -0.17300000000000001 L 0.687 -0.17300000000000001 Q 0.719 -0.17300000000000001 0.721 -0.153 Q 0.721 -0.133 0.6880000000000001 -0.133 Z"/></g><g transform="translate(24.320488679144148,5.442639368421052)"><path fill="rgb(219,97,20)" stroke="none" paint-order="stroke fill markers" d=" M 0.29 -0.352 L 0.29 -0.352 Q 0.39 -0.332 0.434 -0.254 Q 0.457 -0.215 0.457 -0.171 Q 0.457 -0.08600000000000001 0.387 -0.028 Q 0.326 0.022 0.244 0.022 Q 0.145 0.022 0.085 -0.037 Q 0.042 -0.079 0.042 -0.135 Q 0.042 -0.182 0.084 -0.191 Q 0.091 -0.193 0.098 -0.193 Q 0.136 -0.193 0.149 -0.161 Q 0.153 -0.148 0.154 -0.137 Q 0.154 -0.097 0.11800000000000001 -0.085 Q 0.10400000000000001 -0.08 0.088 -0.082 Q 0.125 -0.02 0.216 -0.008 Q 0.229 -0.006 0.241 -0.006 Q 0.305 -0.006 0.335 -0.069 Q 0.354 -0.109 0.354 -0.171 Q 0.354 -0.304 0.274 -0.331 Q 0.256 -0.337 0.23500000000000001 -0.337 L 0.191 -0.337 Q 0.169 -0.337 0.167 -0.34800000000000003 Q 0.167 -0.358 0.182 -0.36 Q 0.197 -0.36 0.221 -0.363 Q 0.272 -0.365 0.301 -0.402 L 0.301 -0.403 L 0.302 -0.404 L 0.303 -0.405 L 0.304 -0.405 L 0.31 -0.41500000000000004 Q 0.338 -0.462 0.338 -0.529 Q 0.338 -0.622 0.266 -0.638 Q 0.254 -0.641 0.242 -0.641 Q 0.17200000000000001 -0.641 0.128 -0.601 Q 0.117 -0.591 0.109 -0.579 Q 0.171 -0.579 0.171 -0.529 Q 0.171 -0.493 0.14 -0.481 Q 0.131 -0.47800000000000004 0.12 -0.47800000000000004 Q 0.081 -0.47800000000000004 0.07100000000000001 -0.513 L 0.07100000000000001 -0.513 L 0.07100000000000001 -0.514 Q 0.069 -0.522 0.069 -0.53 Q 0.069 -0.597 0.135 -0.637 Q 0.183 -0.666 0.246 -0.666 Q 0.337 -0.666 0.393 -0.612 L 0.395 -0.61 Q 0.43 -0.5740000000000001 0.43 -0.528 Q 0.43 -0.445 0.359 -0.389 Q 0.328 -0.365 0.29 -0.352 Z"/></g></g></g></g></svg>